<?xml version="1.0" encoding="utf-8"?>
<!-- Generator: Adobe Illustrator 16.0.4, SVG Export Plug-In . SVG Version: 6.00 Build 0)  -->
<!DOCTYPE svg PUBLIC "-//W3C//DTD SVG 1.0//EN" "http://www.w3.org/TR/2001/REC-SVG-20010904/DTD/svg10.dtd">
<svg version="1.0" id="Layer_1" xmlns="http://www.w3.org/2000/svg" xmlns:xlink="http://www.w3.org/1999/xlink" x="0px" y="0px"
	 width="841.89px" height="595.28px" viewBox="0 0 841.89 595.28" enable-background="new 0 0 841.89 595.28" xml:space="preserve">
<path id="path48916_662_" inkscape:connector-curvature="0" fill="none" stroke="#010202" stroke-miterlimit="10" d="
	M297.408,71.017l-12.274,7.086v14.174l12.274,7.086l12.274-7.086V78.103L297.408,71.017z"/>
<path id="path48916_661_" inkscape:connector-curvature="0" fill="none" stroke="#010202" stroke-miterlimit="10" d="
	M285.134,92.277l-12.274,7.086v14.174l12.274,7.086l12.274-7.086V99.363L285.134,92.277z"/>
<path id="path48916_660_" inkscape:connector-curvature="0" fill="none" stroke="#010202" stroke-miterlimit="10" d="
	M272.859,113.537l-12.274,7.086v14.174l12.274,7.086l12.274-7.086v-14.174L272.859,113.537z"/>
<path id="path48916_659_" inkscape:connector-curvature="0" fill="none" stroke="#010202" stroke-miterlimit="10" d="
	M260.585,134.796l-12.274,7.086v14.174l12.274,7.086l12.274-7.086v-14.174L260.585,134.796z"/>
<path id="path48916_658_" inkscape:connector-curvature="0" fill="none" stroke="#010202" stroke-miterlimit="10" d="
	M248.311,156.056l-12.274,7.086v14.174l12.274,7.086l12.274-7.086v-14.174L248.311,156.056z"/>
<path id="path48916_657_" inkscape:connector-curvature="0" fill="none" stroke="#010202" stroke-miterlimit="10" d="
	M236.036,177.316l-12.274,7.086v14.174l12.274,7.086l12.274-7.086v-14.174L236.036,177.316z"/>
<path id="path48916_656_" inkscape:connector-curvature="0" fill="none" stroke="#010202" stroke-miterlimit="10" d="
	M223.762,198.576l-12.274,7.086v14.174l12.274,7.086l12.274-7.086v-14.174L223.762,198.576z"/>
<path id="path48916_655_" inkscape:connector-curvature="0" fill="none" stroke="#010202" stroke-miterlimit="10" d="
	M211.487,219.835l-12.274,7.086v14.174l12.274,7.086l12.274-7.086v-14.174L211.487,219.835z"/>
<path id="path48916_654_" inkscape:connector-curvature="0" fill="none" stroke="#010202" stroke-miterlimit="10" d="
	M199.213,241.095l-12.274,7.086v14.174l12.274,7.086l12.274-7.086v-14.174L199.213,241.095z"/>
<path id="path48916_653_" inkscape:connector-curvature="0" fill="none" stroke="#010202" stroke-miterlimit="10" d="
	M186.938,262.355l-12.274,7.086v14.174l12.274,7.086l12.274-7.086v-14.174L186.938,262.355z"/>
<path id="path48916_652_" inkscape:connector-curvature="0" fill="none" stroke="#010202" stroke-miterlimit="10" d="
	M223.762,241.095l-12.274,7.086v14.174l12.274,7.086l12.274-7.086v-14.174L223.762,241.095z"/>
<path id="path48916_651_" inkscape:connector-curvature="0" fill="none" stroke="#010202" stroke-miterlimit="10" d="
	M211.487,262.355l-12.274,7.086v14.174l12.274,7.086l12.274-7.086v-14.174L211.487,262.355z"/>
<path id="path48916_650_" inkscape:connector-curvature="0" fill="none" stroke="#010202" stroke-miterlimit="10" d="
	M248.311,241.095l-12.274,7.086v14.174l12.274,7.086l12.274-7.086v-14.174L248.311,241.095z"/>
<path id="path48916_649_" inkscape:connector-curvature="0" fill="none" stroke="#010202" stroke-miterlimit="10" d="
	M236.036,262.355l-12.274,7.086v14.174l12.274,7.086l12.274-7.086v-14.174L236.036,262.355z"/>
<path id="path48916_648_" inkscape:connector-curvature="0" fill="none" stroke="#010202" stroke-miterlimit="10" d="
	M272.859,241.095l-12.274,7.086v14.174l12.274,7.086l12.274-7.086v-14.174L272.859,241.095z"/>
<path id="path48916_647_" inkscape:connector-curvature="0" fill="none" stroke="#010202" stroke-miterlimit="10" d="
	M260.585,262.355l-12.274,7.086v14.174l12.274,7.086l12.274-7.086v-14.174L260.585,262.355z"/>
<path id="path48916_646_" inkscape:connector-curvature="0" fill="none" stroke="#010202" stroke-miterlimit="10" d="
	M297.408,241.095l-12.274,7.086v14.174l12.274,7.086l12.274-7.086v-14.174L297.408,241.095z"/>
<path id="path48916_645_" inkscape:connector-curvature="0" fill="none" stroke="#010202" stroke-miterlimit="10" d="
	M285.134,262.355l-12.274,7.086v14.174l12.274,7.086l12.274-7.086v-14.174L285.134,262.355z"/>
<path id="path48916_644_" inkscape:connector-curvature="0" fill="none" stroke="#010202" stroke-miterlimit="10" d="
	M321.957,241.095l-12.274,7.086v14.174l12.274,7.086l12.274-7.086v-14.174L321.957,241.095z"/>
<path id="path48916_643_" inkscape:connector-curvature="0" fill="none" stroke="#010202" stroke-miterlimit="10" d="
	M309.683,262.355l-12.274,7.086v14.174l12.274,7.086l12.274-7.086v-14.174L309.683,262.355z"/>
<path id="path48916_642_" inkscape:connector-curvature="0" fill="none" stroke="#010202" stroke-miterlimit="10" d="
	M346.506,241.095l-12.274,7.086v14.174l12.274,7.086l12.274-7.086v-14.174L346.506,241.095z"/>
<path id="path48916_641_" inkscape:connector-curvature="0" fill="none" stroke="#010202" stroke-miterlimit="10" d="
	M334.231,262.355l-12.274,7.086v14.174l12.274,7.086l12.274-7.086v-14.174L334.231,262.355z"/>
<path id="path48916_640_" inkscape:connector-curvature="0" fill="none" stroke="#010202" stroke-miterlimit="10" d="
	M371.055,241.095l-12.274,7.086v14.174l12.274,7.086l12.274-7.086v-14.174L371.055,241.095z"/>
<path id="path48916_639_" inkscape:connector-curvature="0" fill="none" stroke="#010202" stroke-miterlimit="10" d="
	M358.78,262.355l-12.274,7.086v14.174l12.274,7.086l12.274-7.086v-14.174L358.78,262.355z"/>
<path id="path48916_638_" inkscape:connector-curvature="0" fill="none" stroke="#010202" stroke-miterlimit="10" d="
	M395.604,241.095l-12.274,7.086v14.174l12.274,7.086l12.274-7.086v-14.174L395.604,241.095z"/>
<path id="path48916_637_" inkscape:connector-curvature="0" fill="none" stroke="#010202" stroke-miterlimit="10" d="
	M383.329,262.355l-12.274,7.086v14.174l12.274,7.086l12.274-7.086v-14.174L383.329,262.355z"/>
<path id="path48916_636_" inkscape:connector-curvature="0" fill="none" stroke="#010202" stroke-miterlimit="10" d="
	M420.152,241.095l-12.274,7.086v14.174l12.274,7.086l12.274-7.086v-14.174L420.152,241.095z"/>
<path id="path48916_635_" inkscape:connector-curvature="0" fill="none" stroke="#010202" stroke-miterlimit="10" d="
	M407.878,262.355l-12.274,7.086v14.174l12.274,7.086l12.274-7.086v-14.174L407.878,262.355z"/>
<path id="path48916_634_" inkscape:connector-curvature="0" fill="none" stroke="#010202" stroke-miterlimit="10" d="
	M444.701,241.095l-12.274,7.086v14.174l12.274,7.086l12.274-7.086v-14.174L444.701,241.095z"/>
<path id="path48916_633_" inkscape:connector-curvature="0" fill="none" stroke="#010202" stroke-miterlimit="10" d="
	M432.427,262.355l-12.274,7.086v14.174l12.274,7.086l12.274-7.086v-14.174L432.427,262.355z"/>
<path id="path48916_632_" inkscape:connector-curvature="0" fill="none" stroke="#010202" stroke-miterlimit="10" d="
	M469.25,241.095l-12.274,7.086v14.174l12.274,7.086l12.274-7.086v-14.174L469.25,241.095z"/>
<path id="path48916_631_" inkscape:connector-curvature="0" fill="none" stroke="#010202" stroke-miterlimit="10" d="
	M456.976,262.355l-12.274,7.086v14.174l12.274,7.086l12.274-7.086v-14.174L456.976,262.355z"/>
<path id="path48916_630_" inkscape:connector-curvature="0" fill="none" stroke="#010202" stroke-miterlimit="10" d="
	M493.799,241.095l-12.274,7.086v14.174l12.274,7.086l12.274-7.086v-14.174L493.799,241.095z"/>
<path id="path48916_629_" inkscape:connector-curvature="0" fill="none" stroke="#010202" stroke-miterlimit="10" d="
	M481.524,262.355l-12.274,7.086v14.174l12.274,7.086l12.274-7.086v-14.174L481.524,262.355z"/>
<path id="path48916_628_" inkscape:connector-curvature="0" fill="none" stroke="#010202" stroke-miterlimit="10" d="
	M518.348,241.095l-12.274,7.086v14.174l12.274,7.086l12.274-7.086v-14.174L518.348,241.095z"/>
<path id="path48916_627_" inkscape:connector-curvature="0" fill="none" stroke="#010202" stroke-miterlimit="10" d="
	M506.073,262.355l-12.274,7.086v14.174l12.274,7.086l12.274-7.086v-14.174L506.073,262.355z"/>
<path id="path48916_626_" inkscape:connector-curvature="0" fill="none" stroke="#010202" stroke-miterlimit="10" d="
	M542.896,241.095l-12.274,7.086v14.174l12.274,7.086l12.274-7.086v-14.174L542.896,241.095z"/>
<path id="path48916_625_" inkscape:connector-curvature="0" fill="none" stroke="#010202" stroke-miterlimit="10" d="
	M530.622,262.355l-12.274,7.086v14.174l12.274,7.086l12.274-7.086v-14.174L530.622,262.355z"/>
<path id="path48916_624_" inkscape:connector-curvature="0" fill="none" stroke="#010202" stroke-miterlimit="10" d="
	M567.445,241.095l-12.274,7.086v14.174l12.274,7.086l12.274-7.086v-14.174L567.445,241.095z"/>
<path id="path48916_623_" inkscape:connector-curvature="0" fill="none" stroke="#010202" stroke-miterlimit="10" d="
	M555.171,262.355l-12.274,7.086v14.174l12.274,7.086l12.274-7.086v-14.174L555.171,262.355z"/>
<path id="path48916_622_" inkscape:connector-curvature="0" fill="none" stroke="#010202" stroke-miterlimit="10" d="
	M591.994,241.095l-12.274,7.086v14.174l12.274,7.086l12.274-7.086v-14.174L591.994,241.095z"/>
<path id="path48916_621_" inkscape:connector-curvature="0" fill="none" stroke="#010202" stroke-miterlimit="10" d="
	M579.72,262.355l-12.274,7.086v14.174l12.274,7.086l12.274-7.086v-14.174L579.72,262.355z"/>
<path id="path48916_620_" inkscape:connector-curvature="0" fill="none" stroke="#010202" stroke-miterlimit="10" d="
	M616.543,241.095l-12.274,7.086v14.174l12.274,7.086l12.274-7.086v-14.174L616.543,241.095z"/>
<path id="path48916_619_" inkscape:connector-curvature="0" fill="none" stroke="#010202" stroke-miterlimit="10" d="
	M604.269,262.355l-12.274,7.086v14.174l12.274,7.086l12.274-7.086v-14.174L604.269,262.355z"/>
<path id="path48916_618_" inkscape:connector-curvature="0" fill="none" stroke="#010202" stroke-miterlimit="10" d="
	M641.092,241.095l-12.274,7.086v14.174l12.274,7.086l12.274-7.086v-14.174L641.092,241.095z"/>
<path id="path48916_617_" inkscape:connector-curvature="0" fill="none" stroke="#010202" stroke-miterlimit="10" d="
	M628.817,262.355l-12.274,7.086v14.174l12.274,7.086l12.274-7.086v-14.174L628.817,262.355z"/>
<path id="path48916_616_" inkscape:connector-curvature="0" fill="none" stroke="#010202" stroke-miterlimit="10" d="
	M653.365,262.355l-12.274,7.086v14.174l12.274,7.086l12.274-7.086v-14.174L653.365,262.355z"/>
<path id="path48916_615_" inkscape:connector-curvature="0" fill="none" stroke="#010202" stroke-miterlimit="10" d="
	M236.036,219.835l-12.274,7.086v14.174l12.274,7.086l12.274-7.086v-14.174L236.036,219.835z"/>
<path id="path48916_614_" inkscape:connector-curvature="0" fill="none" stroke="#010202" stroke-miterlimit="10" d="
	M260.585,219.835l-12.274,7.086v14.174l12.274,7.086l12.274-7.086v-14.174L260.585,219.835z"/>
<path id="path48916_613_" inkscape:connector-curvature="0" fill="none" stroke="#010202" stroke-miterlimit="10" d="
	M285.134,219.835l-12.274,7.086v14.174l12.274,7.086l12.274-7.086v-14.174L285.134,219.835z"/>
<path id="path48916_612_" inkscape:connector-curvature="0" fill="none" stroke="#010202" stroke-miterlimit="10" d="
	M309.683,219.835l-12.274,7.086v14.174l12.274,7.086l12.274-7.086v-14.174L309.683,219.835z"/>
<path id="path48916_611_" inkscape:connector-curvature="0" fill="none" stroke="#010202" stroke-miterlimit="10" d="
	M334.231,219.835l-12.274,7.086v14.174l12.274,7.086l12.274-7.086v-14.174L334.231,219.835z"/>
<path id="path48916_610_" inkscape:connector-curvature="0" fill="none" stroke="#010202" stroke-miterlimit="10" d="
	M358.78,219.835l-12.274,7.086v14.174l12.274,7.086l12.274-7.086v-14.174L358.78,219.835z"/>
<path id="path48916_609_" inkscape:connector-curvature="0" fill="none" stroke="#010202" stroke-miterlimit="10" d="
	M383.329,219.835l-12.274,7.086v14.174l12.274,7.086l12.274-7.086v-14.174L383.329,219.835z"/>
<path id="path48916_608_" inkscape:connector-curvature="0" fill="none" stroke="#010202" stroke-miterlimit="10" d="
	M407.878,219.835l-12.274,7.086v14.174l12.274,7.086l12.274-7.086v-14.174L407.878,219.835z"/>
<path id="path48916_607_" inkscape:connector-curvature="0" fill="none" stroke="#010202" stroke-miterlimit="10" d="
	M432.427,219.835l-12.274,7.086v14.174l12.274,7.086l12.274-7.086v-14.174L432.427,219.835z"/>
<path id="path48916_606_" inkscape:connector-curvature="0" fill="none" stroke="#010202" stroke-miterlimit="10" d="
	M456.976,219.835l-12.274,7.086v14.174l12.274,7.086l12.274-7.086v-14.174L456.976,219.835z"/>
<path id="path48916_605_" inkscape:connector-curvature="0" fill="none" stroke="#010202" stroke-miterlimit="10" d="
	M481.524,219.835l-12.274,7.086v14.174l12.274,7.086l12.274-7.086v-14.174L481.524,219.835z"/>
<path id="path48916_604_" inkscape:connector-curvature="0" fill="none" stroke="#010202" stroke-miterlimit="10" d="
	M506.073,219.835l-12.274,7.086v14.174l12.274,7.086l12.274-7.086v-14.174L506.073,219.835z"/>
<path id="path48916_603_" inkscape:connector-curvature="0" fill="none" stroke="#010202" stroke-miterlimit="10" d="
	M530.622,219.835l-12.274,7.086v14.174l12.274,7.086l12.274-7.086v-14.174L530.622,219.835z"/>
<path id="path48916_602_" inkscape:connector-curvature="0" fill="none" stroke="#010202" stroke-miterlimit="10" d="
	M555.171,219.835l-12.274,7.086v14.174l12.274,7.086l12.274-7.086v-14.174L555.171,219.835z"/>
<path id="path48916_601_" inkscape:connector-curvature="0" fill="none" stroke="#010202" stroke-miterlimit="10" d="
	M579.72,219.835l-12.274,7.086v14.174l12.274,7.086l12.274-7.086v-14.174L579.72,219.835z"/>
<path id="path48916_600_" inkscape:connector-curvature="0" fill="none" stroke="#010202" stroke-miterlimit="10" d="
	M604.269,219.835l-12.274,7.086v14.174l12.274,7.086l12.274-7.086v-14.174L604.269,219.835z"/>
<path id="path48916_599_" inkscape:connector-curvature="0" fill="none" stroke="#010202" stroke-miterlimit="10" d="
	M628.817,219.835l-12.274,7.086v14.174l12.274,7.086l12.274-7.086v-14.174L628.817,219.835z"/>
<path id="path48916_598_" inkscape:connector-curvature="0" fill="none" stroke="#010202" stroke-miterlimit="10" d="
	M248.311,198.576l-12.274,7.086v14.174l12.274,7.086l12.274-7.086v-14.174L248.311,198.576z"/>
<path id="path48916_597_" inkscape:connector-curvature="0" fill="none" stroke="#010202" stroke-miterlimit="10" d="
	M272.859,198.576l-12.274,7.086v14.174l12.274,7.086l12.274-7.086v-14.174L272.859,198.576z"/>
<path id="path48916_596_" inkscape:connector-curvature="0" fill="none" stroke="#010202" stroke-miterlimit="10" d="
	M297.408,198.576l-12.274,7.086v14.174l12.274,7.086l12.274-7.086v-14.174L297.408,198.576z"/>
<path id="path48916_595_" inkscape:connector-curvature="0" fill="none" stroke="#010202" stroke-miterlimit="10" d="
	M321.957,198.576l-12.274,7.086v14.174l12.274,7.086l12.274-7.086v-14.174L321.957,198.576z"/>
<path id="path48916_594_" inkscape:connector-curvature="0" fill="none" stroke="#010202" stroke-miterlimit="10" d="
	M346.506,198.576l-12.274,7.086v14.174l12.274,7.086l12.274-7.086v-14.174L346.506,198.576z"/>
<path id="path48916_593_" inkscape:connector-curvature="0" fill="none" stroke="#010202" stroke-miterlimit="10" d="
	M371.055,198.576l-12.274,7.086v14.174l12.274,7.086l12.274-7.086v-14.174L371.055,198.576z"/>
<path id="path48916_592_" inkscape:connector-curvature="0" fill="none" stroke="#010202" stroke-miterlimit="10" d="
	M395.604,198.576l-12.274,7.086v14.174l12.274,7.086l12.274-7.086v-14.174L395.604,198.576z"/>
<path id="path48916_591_" inkscape:connector-curvature="0" fill="none" stroke="#010202" stroke-miterlimit="10" d="
	M420.152,198.576l-12.274,7.086v14.174l12.274,7.086l12.274-7.086v-14.174L420.152,198.576z"/>
<path id="path48916_590_" inkscape:connector-curvature="0" fill="none" stroke="#010202" stroke-miterlimit="10" d="
	M444.701,198.576l-12.274,7.086v14.174l12.274,7.086l12.274-7.086v-14.174L444.701,198.576z"/>
<path id="path48916_589_" inkscape:connector-curvature="0" fill="none" stroke="#010202" stroke-miterlimit="10" d="
	M469.25,198.576l-12.274,7.086v14.174l12.274,7.086l12.274-7.086v-14.174L469.25,198.576z"/>
<path id="path48916_588_" inkscape:connector-curvature="0" fill="none" stroke="#010202" stroke-miterlimit="10" d="
	M493.799,198.576l-12.274,7.086v14.174l12.274,7.086l12.274-7.086v-14.174L493.799,198.576z"/>
<path id="path48916_587_" inkscape:connector-curvature="0" fill="none" stroke="#010202" stroke-miterlimit="10" d="
	M518.348,198.576l-12.274,7.086v14.174l12.274,7.086l12.274-7.086v-14.174L518.348,198.576z"/>
<path id="path48916_586_" inkscape:connector-curvature="0" fill="none" stroke="#010202" stroke-miterlimit="10" d="
	M542.896,198.576l-12.274,7.086v14.174l12.274,7.086l12.274-7.086v-14.174L542.896,198.576z"/>
<path id="path48916_585_" inkscape:connector-curvature="0" fill="none" stroke="#010202" stroke-miterlimit="10" d="
	M567.445,198.576l-12.274,7.086v14.174l12.274,7.086l12.274-7.086v-14.174L567.445,198.576z"/>
<path id="path48916_584_" inkscape:connector-curvature="0" fill="none" stroke="#010202" stroke-miterlimit="10" d="
	M591.994,198.576l-12.274,7.086v14.174l12.274,7.086l12.274-7.086v-14.174L591.994,198.576z"/>
<path id="path48916_583_" inkscape:connector-curvature="0" fill="none" stroke="#010202" stroke-miterlimit="10" d="
	M616.543,198.576l-12.274,7.086v14.174l12.274,7.086l12.274-7.086v-14.174L616.543,198.576z"/>
<path id="path48916_582_" inkscape:connector-curvature="0" fill="none" stroke="#010202" stroke-miterlimit="10" d="
	M260.585,177.316l-12.274,7.086v14.174l12.274,7.086l12.274-7.086v-14.174L260.585,177.316z"/>
<path id="path48916_581_" inkscape:connector-curvature="0" fill="none" stroke="#010202" stroke-miterlimit="10" d="
	M285.134,177.316l-12.274,7.086v14.174l12.274,7.086l12.274-7.086v-14.174L285.134,177.316z"/>
<path id="path48916_580_" inkscape:connector-curvature="0" fill="none" stroke="#010202" stroke-miterlimit="10" d="
	M309.683,177.316l-12.274,7.086v14.174l12.274,7.086l12.274-7.086v-14.174L309.683,177.316z"/>
<path id="path48916_579_" inkscape:connector-curvature="0" fill="none" stroke="#010202" stroke-miterlimit="10" d="
	M334.231,177.316l-12.274,7.086v14.174l12.274,7.086l12.274-7.086v-14.174L334.231,177.316z"/>
<path id="path48916_578_" inkscape:connector-curvature="0" fill="none" stroke="#010202" stroke-miterlimit="10" d="
	M358.78,177.316l-12.274,7.086v14.174l12.274,7.086l12.274-7.086v-14.174L358.78,177.316z"/>
<path id="path48916_577_" inkscape:connector-curvature="0" fill="none" stroke="#010202" stroke-miterlimit="10" d="
	M383.329,177.316l-12.274,7.086v14.174l12.274,7.086l12.274-7.086v-14.174L383.329,177.316z"/>
<path id="path48916_576_" inkscape:connector-curvature="0" fill="none" stroke="#010202" stroke-miterlimit="10" d="
	M407.878,177.316l-12.274,7.086v14.174l12.274,7.086l12.274-7.086v-14.174L407.878,177.316z"/>
<path id="path48916_575_" inkscape:connector-curvature="0" fill="none" stroke="#010202" stroke-miterlimit="10" d="
	M432.427,177.316l-12.274,7.086v14.174l12.274,7.086l12.274-7.086v-14.174L432.427,177.316z"/>
<path id="path48916_574_" inkscape:connector-curvature="0" fill="none" stroke="#010202" stroke-miterlimit="10" d="
	M456.976,177.316l-12.274,7.086v14.174l12.274,7.086l12.274-7.086v-14.174L456.976,177.316z"/>
<path id="path48916_573_" inkscape:connector-curvature="0" fill="none" stroke="#010202" stroke-miterlimit="10" d="
	M481.524,177.316l-12.274,7.086v14.174l12.274,7.086l12.274-7.086v-14.174L481.524,177.316z"/>
<path id="path48916_572_" inkscape:connector-curvature="0" fill="none" stroke="#010202" stroke-miterlimit="10" d="
	M506.073,177.316l-12.274,7.086v14.174l12.274,7.086l12.274-7.086v-14.174L506.073,177.316z"/>
<path id="path48916_571_" inkscape:connector-curvature="0" fill="none" stroke="#010202" stroke-miterlimit="10" d="
	M530.622,177.316l-12.274,7.086v14.174l12.274,7.086l12.274-7.086v-14.174L530.622,177.316z"/>
<path id="path48916_570_" inkscape:connector-curvature="0" fill="none" stroke="#010202" stroke-miterlimit="10" d="
	M555.171,177.316l-12.274,7.086v14.174l12.274,7.086l12.274-7.086v-14.174L555.171,177.316z"/>
<path id="path48916_569_" inkscape:connector-curvature="0" fill="none" stroke="#010202" stroke-miterlimit="10" d="
	M579.72,177.316l-12.274,7.086v14.174l12.274,7.086l12.274-7.086v-14.174L579.72,177.316z"/>
<path id="path48916_568_" inkscape:connector-curvature="0" fill="none" stroke="#010202" stroke-miterlimit="10" d="
	M604.269,177.316l-12.274,7.086v14.174l12.274,7.086l12.274-7.086v-14.174L604.269,177.316z"/>
<path id="path48916_567_" inkscape:connector-curvature="0" fill="none" stroke="#010202" stroke-miterlimit="10" d="
	M272.859,156.056l-12.274,7.086v14.174l12.274,7.086l12.274-7.086v-14.174L272.859,156.056z"/>
<path id="path48916_566_" inkscape:connector-curvature="0" fill="none" stroke="#010202" stroke-miterlimit="10" d="
	M297.408,156.056l-12.274,7.086v14.174l12.274,7.086l12.274-7.086v-14.174L297.408,156.056z"/>
<path id="path48916_565_" inkscape:connector-curvature="0" fill="none" stroke="#010202" stroke-miterlimit="10" d="
	M321.957,156.056l-12.274,7.086v14.174l12.274,7.086l12.274-7.086v-14.174L321.957,156.056z"/>
<path id="path48916_564_" inkscape:connector-curvature="0" fill="none" stroke="#010202" stroke-miterlimit="10" d="
	M346.506,156.056l-12.274,7.086v14.174l12.274,7.086l12.274-7.086v-14.174L346.506,156.056z"/>
<path id="path48916_563_" inkscape:connector-curvature="0" fill="none" stroke="#010202" stroke-miterlimit="10" d="
	M371.055,156.056l-12.274,7.086v14.174l12.274,7.086l12.274-7.086v-14.174L371.055,156.056z"/>
<path id="path48916_562_" inkscape:connector-curvature="0" fill="none" stroke="#010202" stroke-miterlimit="10" d="
	M395.604,156.056l-12.274,7.086v14.174l12.274,7.086l12.274-7.086v-14.174L395.604,156.056z"/>
<path id="path48916_561_" inkscape:connector-curvature="0" fill="none" stroke="#010202" stroke-miterlimit="10" d="
	M420.152,156.056l-12.274,7.086v14.174l12.274,7.086l12.274-7.086v-14.174L420.152,156.056z"/>
<path id="path48916_560_" inkscape:connector-curvature="0" fill="none" stroke="#010202" stroke-miterlimit="10" d="
	M444.701,156.056l-12.274,7.086v14.174l12.274,7.086l12.274-7.086v-14.174L444.701,156.056z"/>
<path id="path48916_559_" inkscape:connector-curvature="0" fill="none" stroke="#010202" stroke-miterlimit="10" d="
	M469.25,156.056l-12.274,7.086v14.174l12.274,7.086l12.274-7.086v-14.174L469.25,156.056z"/>
<path id="path48916_558_" inkscape:connector-curvature="0" fill="none" stroke="#010202" stroke-miterlimit="10" d="
	M493.799,156.056l-12.274,7.086v14.174l12.274,7.086l12.274-7.086v-14.174L493.799,156.056z"/>
<path id="path48916_557_" inkscape:connector-curvature="0" fill="none" stroke="#010202" stroke-miterlimit="10" d="
	M518.348,156.056l-12.274,7.086v14.174l12.274,7.086l12.274-7.086v-14.174L518.348,156.056z"/>
<path id="path48916_556_" inkscape:connector-curvature="0" fill="none" stroke="#010202" stroke-miterlimit="10" d="
	M542.896,156.056l-12.274,7.086v14.174l12.274,7.086l12.274-7.086v-14.174L542.896,156.056z"/>
<path id="path48916_555_" inkscape:connector-curvature="0" fill="none" stroke="#010202" stroke-miterlimit="10" d="
	M567.445,156.056l-12.274,7.086v14.174l12.274,7.086l12.274-7.086v-14.174L567.445,156.056z"/>
<path id="path48916_554_" inkscape:connector-curvature="0" fill="none" stroke="#010202" stroke-miterlimit="10" d="
	M591.994,156.056l-12.274,7.086v14.174l12.274,7.086l12.274-7.086v-14.174L591.994,156.056z"/>
<path id="path48916_553_" inkscape:connector-curvature="0" fill="none" stroke="#010202" stroke-miterlimit="10" d="
	M285.134,134.796l-12.274,7.086v14.174l12.274,7.086l12.274-7.086v-14.174L285.134,134.796z"/>
<path id="path48916_552_" inkscape:connector-curvature="0" fill="none" stroke="#010202" stroke-miterlimit="10" d="
	M309.683,134.796l-12.274,7.086v14.174l12.274,7.086l12.274-7.086v-14.174L309.683,134.796z"/>
<path id="path48916_551_" inkscape:connector-curvature="0" fill="none" stroke="#010202" stroke-miterlimit="10" d="
	M334.231,134.796l-12.274,7.086v14.174l12.274,7.086l12.274-7.086v-14.174L334.231,134.796z"/>
<path id="path48916_550_" inkscape:connector-curvature="0" fill="none" stroke="#010202" stroke-miterlimit="10" d="
	M358.78,134.796l-12.274,7.086v14.174l12.274,7.086l12.274-7.086v-14.174L358.78,134.796z"/>
<path id="path48916_549_" inkscape:connector-curvature="0" fill="none" stroke="#010202" stroke-miterlimit="10" d="
	M383.329,134.796l-12.274,7.086v14.174l12.274,7.086l12.274-7.086v-14.174L383.329,134.796z"/>
<path id="path48916_548_" inkscape:connector-curvature="0" fill="none" stroke="#010202" stroke-miterlimit="10" d="
	M407.878,134.796l-12.274,7.086v14.174l12.274,7.086l12.274-7.086v-14.174L407.878,134.796z"/>
<path id="path48916_547_" inkscape:connector-curvature="0" fill="none" stroke="#010202" stroke-miterlimit="10" d="
	M432.427,134.796l-12.274,7.086v14.174l12.274,7.086l12.274-7.086v-14.174L432.427,134.796z"/>
<path id="path48916_546_" inkscape:connector-curvature="0" fill="none" stroke="#010202" stroke-miterlimit="10" d="
	M456.976,134.796l-12.274,7.086v14.174l12.274,7.086l12.274-7.086v-14.174L456.976,134.796z"/>
<path id="path48916_545_" inkscape:connector-curvature="0" fill="none" stroke="#010202" stroke-miterlimit="10" d="
	M481.524,134.796l-12.274,7.086v14.174l12.274,7.086l12.274-7.086v-14.174L481.524,134.796z"/>
<path id="path48916_544_" inkscape:connector-curvature="0" fill="none" stroke="#010202" stroke-miterlimit="10" d="
	M506.073,134.796l-12.274,7.086v14.174l12.274,7.086l12.274-7.086v-14.174L506.073,134.796z"/>
<path id="path48916_543_" inkscape:connector-curvature="0" fill="none" stroke="#010202" stroke-miterlimit="10" d="
	M530.622,134.796l-12.274,7.086v14.174l12.274,7.086l12.274-7.086v-14.174L530.622,134.796z"/>
<path id="path48916_542_" inkscape:connector-curvature="0" fill="none" stroke="#010202" stroke-miterlimit="10" d="
	M555.171,134.796l-12.274,7.086v14.174l12.274,7.086l12.274-7.086v-14.174L555.171,134.796z"/>
<path id="path48916_541_" inkscape:connector-curvature="0" fill="none" stroke="#010202" stroke-miterlimit="10" d="
	M579.72,134.796l-12.274,7.086v14.174l12.274,7.086l12.274-7.086v-14.174L579.72,134.796z"/>
<path id="path48916_540_" inkscape:connector-curvature="0" fill="none" stroke="#010202" stroke-miterlimit="10" d="
	M297.408,113.537l-12.274,7.086v14.174l12.274,7.086l12.274-7.086v-14.174L297.408,113.537z"/>
<path id="path48916_539_" inkscape:connector-curvature="0" fill="none" stroke="#010202" stroke-miterlimit="10" d="
	M321.957,113.537l-12.274,7.086v14.174l12.274,7.086l12.274-7.086v-14.174L321.957,113.537z"/>
<path id="path48916_538_" inkscape:connector-curvature="0" fill="none" stroke="#010202" stroke-miterlimit="10" d="
	M346.506,113.537l-12.274,7.086v14.174l12.274,7.086l12.274-7.086v-14.174L346.506,113.537z"/>
<path id="path48916_537_" inkscape:connector-curvature="0" fill="none" stroke="#010202" stroke-miterlimit="10" d="
	M371.055,113.537l-12.274,7.086v14.174l12.274,7.086l12.274-7.086v-14.174L371.055,113.537z"/>
<path id="path48916_536_" inkscape:connector-curvature="0" fill="none" stroke="#010202" stroke-miterlimit="10" d="
	M395.604,113.537l-12.274,7.086v14.174l12.274,7.086l12.274-7.086v-14.174L395.604,113.537z"/>
<path id="path48916_535_" inkscape:connector-curvature="0" fill="none" stroke="#010202" stroke-miterlimit="10" d="
	M420.152,113.537l-12.274,7.086v14.174l12.274,7.086l12.274-7.086v-14.174L420.152,113.537z"/>
<path id="path48916_534_" inkscape:connector-curvature="0" fill="none" stroke="#010202" stroke-miterlimit="10" d="
	M444.701,113.537l-12.274,7.086v14.174l12.274,7.086l12.274-7.086v-14.174L444.701,113.537z"/>
<path id="path48916_533_" inkscape:connector-curvature="0" fill="none" stroke="#010202" stroke-miterlimit="10" d="
	M469.25,113.537l-12.274,7.086v14.174l12.274,7.086l12.274-7.086v-14.174L469.25,113.537z"/>
<path id="path48916_532_" inkscape:connector-curvature="0" fill="none" stroke="#010202" stroke-miterlimit="10" d="
	M493.799,113.537l-12.274,7.086v14.174l12.274,7.086l12.274-7.086v-14.174L493.799,113.537z"/>
<path id="path48916_531_" inkscape:connector-curvature="0" fill="none" stroke="#010202" stroke-miterlimit="10" d="
	M518.348,113.537l-12.274,7.086v14.174l12.274,7.086l12.274-7.086v-14.174L518.348,113.537z"/>
<path id="path48916_530_" inkscape:connector-curvature="0" fill="none" stroke="#010202" stroke-miterlimit="10" d="
	M542.896,113.537l-12.274,7.086v14.174l12.274,7.086l12.274-7.086v-14.174L542.896,113.537z"/>
<path id="path48916_529_" inkscape:connector-curvature="0" fill="none" stroke="#010202" stroke-miterlimit="10" d="
	M567.445,113.537l-12.274,7.086v14.174l12.274,7.086l12.274-7.086v-14.174L567.445,113.537z"/>
<path id="path48916_528_" inkscape:connector-curvature="0" fill="none" stroke="#010202" stroke-miterlimit="10" d="
	M309.683,92.277l-12.274,7.086v14.174l12.274,7.086l12.274-7.086V99.363L309.683,92.277z"/>
<path id="path48916_527_" inkscape:connector-curvature="0" fill="none" stroke="#010202" stroke-miterlimit="10" d="
	M334.231,92.277l-12.274,7.086v14.174l12.274,7.086l12.274-7.086V99.363L334.231,92.277z"/>
<path id="path48916_526_" inkscape:connector-curvature="0" fill="none" stroke="#010202" stroke-miterlimit="10" d="M358.78,92.277
	l-12.274,7.086v14.174l12.274,7.086l12.274-7.086V99.363L358.78,92.277z"/>
<path id="path48916_525_" inkscape:connector-curvature="0" fill="none" stroke="#010202" stroke-miterlimit="10" d="
	M383.329,92.277l-12.274,7.086v14.174l12.274,7.086l12.274-7.086V99.363L383.329,92.277z"/>
<path id="path48916_524_" inkscape:connector-curvature="0" fill="none" stroke="#010202" stroke-miterlimit="10" d="
	M407.878,92.277l-12.274,7.086v14.174l12.274,7.086l12.274-7.086V99.363L407.878,92.277z"/>
<path id="path48916_523_" inkscape:connector-curvature="0" fill="none" stroke="#010202" stroke-miterlimit="10" d="
	M432.427,92.277l-12.274,7.086v14.174l12.274,7.086l12.274-7.086V99.363L432.427,92.277z"/>
<path id="path48916_522_" inkscape:connector-curvature="0" fill="none" stroke="#010202" stroke-miterlimit="10" d="
	M456.976,92.277l-12.274,7.086v14.174l12.274,7.086l12.274-7.086V99.363L456.976,92.277z"/>
<path id="path48916_521_" inkscape:connector-curvature="0" fill="none" stroke="#010202" stroke-miterlimit="10" d="
	M481.524,92.277l-12.274,7.086v14.174l12.274,7.086l12.274-7.086V99.363L481.524,92.277z"/>
<path id="path48916_520_" inkscape:connector-curvature="0" fill="none" stroke="#010202" stroke-miterlimit="10" d="
	M506.073,92.277l-12.274,7.086v14.174l12.274,7.086l12.274-7.086V99.363L506.073,92.277z"/>
<path id="path48916_519_" inkscape:connector-curvature="0" fill="none" stroke="#010202" stroke-miterlimit="10" d="
	M530.622,92.277l-12.274,7.086v14.174l12.274,7.086l12.274-7.086V99.363L530.622,92.277z"/>
<path id="path48916_518_" inkscape:connector-curvature="0" fill="none" stroke="#010202" stroke-miterlimit="10" d="
	M555.171,92.277l-12.274,7.086v14.174l12.274,7.086l12.274-7.086V99.363L555.171,92.277z"/>
<path id="path48916_517_" inkscape:connector-curvature="0" fill="none" stroke="#010202" stroke-miterlimit="10" d="
	M174.664,283.467l-12.274,7.086v14.173l12.274,7.086l12.274-7.086v-14.173L174.664,283.467z"/>
<path id="path48916_516_" inkscape:connector-curvature="0" fill="none" stroke="#010202" stroke-miterlimit="10" d="
	M186.938,304.875l-12.274,7.086v14.174l12.274,7.086l12.274-7.086v-14.174L186.938,304.875z"/>
<path id="path48916_515_" inkscape:connector-curvature="0" fill="none" stroke="#010202" stroke-miterlimit="10" d="
	M199.213,326.135l-12.274,7.086v14.174l12.274,7.086l12.274-7.086v-14.174L199.213,326.135z"/>
<path id="path48916_514_" inkscape:connector-curvature="0" fill="none" stroke="#010202" stroke-miterlimit="10" d="
	M211.487,347.395l-12.274,7.086v14.174l12.274,7.086l12.274-7.086V354.48L211.487,347.395z"/>
<path id="path48916_513_" inkscape:connector-curvature="0" fill="none" stroke="#010202" stroke-miterlimit="10" d="
	M223.762,368.654l-12.274,7.086v14.174L223.762,397l12.274-7.086V375.74L223.762,368.654z"/>
<path id="path48916_512_" inkscape:connector-curvature="0" fill="none" stroke="#010202" stroke-miterlimit="10" d="
	M236.036,389.914L223.762,397v14.174l12.274,7.086l12.274-7.086V397L236.036,389.914z"/>
<path id="path48916_511_" inkscape:connector-curvature="0" fill="none" stroke="#010202" stroke-miterlimit="10" d="
	M248.311,411.174l-12.274,7.086v14.174l12.274,7.086l12.274-7.086V418.26L248.311,411.174z"/>
<path id="path48916_510_" inkscape:connector-curvature="0" fill="none" stroke="#010202" stroke-miterlimit="10" d="
	M260.585,432.434l-12.274,7.086v14.174l12.274,7.086l12.274-7.086V439.52L260.585,432.434z"/>
<path id="path48916_509_" inkscape:connector-curvature="0" fill="none" stroke="#010202" stroke-miterlimit="10" d="
	M272.859,453.693l-12.274,7.086v14.174l12.274,7.086l12.274-7.086v-14.174L272.859,453.693z"/>
<path id="path48916_508_" inkscape:connector-curvature="0" fill="none" stroke="#010202" stroke-miterlimit="10" d="
	M285.134,474.953l-12.274,7.086v14.174l12.274,7.086l12.274-7.086v-14.174L285.134,474.953z"/>
<path id="path48916_507_" inkscape:connector-curvature="0" fill="none" stroke="#010202" stroke-miterlimit="10" d="
	M297.408,496.213l-12.274,7.086v14.174l12.274,7.086l12.274-7.086v-14.174L297.408,496.213z"/>
<path id="path48916_506_" inkscape:connector-curvature="0" fill="none" stroke="#010202" stroke-miterlimit="10" d="
	M223.762,326.135l-12.274,7.086v14.174l12.274,7.086l12.274-7.086v-14.174L223.762,326.135z"/>
<path id="path48916_505_" inkscape:connector-curvature="0" fill="none" stroke="#010202" stroke-miterlimit="10" d="
	M236.036,347.395l-12.274,7.086v14.174l12.274,7.086l12.274-7.086V354.48L236.036,347.395z"/>
<path id="path48916_504_" inkscape:connector-curvature="0" fill="none" stroke="#010202" stroke-miterlimit="10" d="
	M248.311,368.654l-12.274,7.086v14.174L248.311,397l12.274-7.086V375.74L248.311,368.654z"/>
<path id="path48916_503_" inkscape:connector-curvature="0" fill="none" stroke="#010202" stroke-miterlimit="10" d="
	M260.585,389.914L248.311,397v14.174l12.274,7.086l12.274-7.086V397L260.585,389.914z"/>
<path id="path48916_502_" inkscape:connector-curvature="0" fill="none" stroke="#010202" stroke-miterlimit="10" d="
	M272.859,411.174l-12.274,7.086v14.174l12.274,7.086l12.274-7.086V418.26L272.859,411.174z"/>
<path id="path48916_501_" inkscape:connector-curvature="0" fill="none" stroke="#010202" stroke-miterlimit="10" d="
	M285.134,432.434l-12.274,7.086v14.174l12.274,7.086l12.274-7.086V439.52L285.134,432.434z"/>
<path id="path48916_500_" inkscape:connector-curvature="0" fill="none" stroke="#010202" stroke-miterlimit="10" d="
	M297.408,453.693l-12.274,7.086v14.174l12.274,7.086l12.274-7.086v-14.174L297.408,453.693z"/>
<path id="path48916_499_" inkscape:connector-curvature="0" fill="none" stroke="#010202" stroke-miterlimit="10" d="
	M309.683,474.953l-12.274,7.086v14.174l12.274,7.086l12.274-7.086v-14.174L309.683,474.953z"/>
<path id="path48916_498_" inkscape:connector-curvature="0" fill="none" stroke="#010202" stroke-miterlimit="10" d="
	M321.957,496.213l-12.274,7.086v14.174l12.274,7.086l12.274-7.086v-14.174L321.957,496.213z"/>
<path id="path48916_497_" inkscape:connector-curvature="0" fill="none" stroke="#010202" stroke-miterlimit="10" d="
	M248.311,326.135l-12.274,7.086v14.174l12.274,7.086l12.274-7.086v-14.174L248.311,326.135z"/>
<path id="path48916_496_" inkscape:connector-curvature="0" fill="none" stroke="#010202" stroke-miterlimit="10" d="
	M260.585,347.395l-12.274,7.086v14.174l12.274,7.086l12.274-7.086V354.48L260.585,347.395z"/>
<path id="path48916_495_" inkscape:connector-curvature="0" fill="none" stroke="#010202" stroke-miterlimit="10" d="
	M272.859,368.654l-12.274,7.086v14.174L272.859,397l12.274-7.086V375.74L272.859,368.654z"/>
<path id="path48916_494_" inkscape:connector-curvature="0" fill="none" stroke="#010202" stroke-miterlimit="10" d="
	M285.134,389.914L272.859,397v14.174l12.274,7.086l12.274-7.086V397L285.134,389.914z"/>
<path id="path48916_493_" inkscape:connector-curvature="0" fill="none" stroke="#010202" stroke-miterlimit="10" d="
	M297.408,411.174l-12.274,7.086v14.174l12.274,7.086l12.274-7.086V418.26L297.408,411.174z"/>
<path id="path48916_492_" inkscape:connector-curvature="0" fill="none" stroke="#010202" stroke-miterlimit="10" d="
	M309.683,432.434l-12.274,7.086v14.174l12.274,7.086l12.274-7.086V439.52L309.683,432.434z"/>
<path id="path48916_491_" inkscape:connector-curvature="0" fill="none" stroke="#010202" stroke-miterlimit="10" d="
	M321.957,453.693l-12.274,7.086v14.174l12.274,7.086l12.274-7.086v-14.174L321.957,453.693z"/>
<path id="path48916_490_" inkscape:connector-curvature="0" fill="none" stroke="#010202" stroke-miterlimit="10" d="
	M334.231,474.953l-12.274,7.086v14.174l12.274,7.086l12.274-7.086v-14.174L334.231,474.953z"/>
<path id="path48916_489_" inkscape:connector-curvature="0" fill="none" stroke="#010202" stroke-miterlimit="10" d="
	M346.506,496.213l-12.274,7.086v14.174l12.274,7.086l12.274-7.086v-14.174L346.506,496.213z"/>
<path id="path48916_488_" inkscape:connector-curvature="0" fill="none" stroke="#010202" stroke-miterlimit="10" d="
	M272.859,326.135l-12.274,7.086v14.174l12.274,7.086l12.274-7.086v-14.174L272.859,326.135z"/>
<path id="path48916_487_" inkscape:connector-curvature="0" fill="none" stroke="#010202" stroke-miterlimit="10" d="
	M285.134,347.395l-12.274,7.086v14.174l12.274,7.086l12.274-7.086V354.48L285.134,347.395z"/>
<path id="path48916_486_" inkscape:connector-curvature="0" fill="none" stroke="#010202" stroke-miterlimit="10" d="
	M297.408,368.654l-12.274,7.086v14.174L297.408,397l12.274-7.086V375.74L297.408,368.654z"/>
<path id="path48916_485_" inkscape:connector-curvature="0" fill="none" stroke="#010202" stroke-miterlimit="10" d="
	M309.683,389.914L297.408,397v14.174l12.274,7.086l12.274-7.086V397L309.683,389.914z"/>
<path id="path48916_484_" inkscape:connector-curvature="0" fill="none" stroke="#010202" stroke-miterlimit="10" d="
	M321.957,411.174l-12.274,7.086v14.174l12.274,7.086l12.274-7.086V418.26L321.957,411.174z"/>
<path id="path48916_483_" inkscape:connector-curvature="0" fill="none" stroke="#010202" stroke-miterlimit="10" d="
	M334.231,432.434l-12.274,7.086v14.174l12.274,7.086l12.274-7.086V439.52L334.231,432.434z"/>
<path id="path48916_482_" inkscape:connector-curvature="0" fill="none" stroke="#010202" stroke-miterlimit="10" d="
	M346.506,453.693l-12.274,7.086v14.174l12.274,7.086l12.274-7.086v-14.174L346.506,453.693z"/>
<path id="path48916_481_" inkscape:connector-curvature="0" fill="none" stroke="#010202" stroke-miterlimit="10" d="
	M358.78,474.953l-12.274,7.086v14.174l12.274,7.086l12.274-7.086v-14.174L358.78,474.953z"/>
<path id="path48916_480_" inkscape:connector-curvature="0" fill="none" stroke="#010202" stroke-miterlimit="10" d="
	M371.055,496.213l-12.274,7.086v14.174l12.274,7.086l12.274-7.086v-14.174L371.055,496.213z"/>
<path id="path48916_479_" inkscape:connector-curvature="0" fill="none" stroke="#010202" stroke-miterlimit="10" d="
	M297.408,326.135l-12.274,7.086v14.174l12.274,7.086l12.274-7.086v-14.174L297.408,326.135z"/>
<path id="path48916_478_" inkscape:connector-curvature="0" fill="none" stroke="#010202" stroke-miterlimit="10" d="
	M309.683,347.395l-12.274,7.086v14.174l12.274,7.086l12.274-7.086V354.48L309.683,347.395z"/>
<path id="path48916_477_" inkscape:connector-curvature="0" fill="none" stroke="#010202" stroke-miterlimit="10" d="
	M321.957,368.654l-12.274,7.086v14.174L321.957,397l12.274-7.086V375.74L321.957,368.654z"/>
<path id="path48916_476_" inkscape:connector-curvature="0" fill="none" stroke="#010202" stroke-miterlimit="10" d="
	M334.231,389.914L321.957,397v14.174l12.274,7.086l12.274-7.086V397L334.231,389.914z"/>
<path id="path48916_475_" inkscape:connector-curvature="0" fill="none" stroke="#010202" stroke-miterlimit="10" d="
	M346.506,411.174l-12.274,7.086v14.174l12.274,7.086l12.274-7.086V418.26L346.506,411.174z"/>
<path id="path48916_474_" inkscape:connector-curvature="0" fill="none" stroke="#010202" stroke-miterlimit="10" d="
	M358.78,432.434l-12.274,7.086v14.174l12.274,7.086l12.274-7.086V439.52L358.78,432.434z"/>
<path id="path48916_473_" inkscape:connector-curvature="0" fill="none" stroke="#010202" stroke-miterlimit="10" d="
	M371.055,453.693l-12.274,7.086v14.174l12.274,7.086l12.274-7.086v-14.174L371.055,453.693z"/>
<path id="path48916_472_" inkscape:connector-curvature="0" fill="none" stroke="#010202" stroke-miterlimit="10" d="
	M383.329,474.953l-12.274,7.086v14.174l12.274,7.086l12.274-7.086v-14.174L383.329,474.953z"/>
<path id="path48916_471_" inkscape:connector-curvature="0" fill="none" stroke="#010202" stroke-miterlimit="10" d="
	M395.604,496.213l-12.274,7.086v14.174l12.274,7.086l12.274-7.086v-14.174L395.604,496.213z"/>
<path id="path48916_470_" inkscape:connector-curvature="0" fill="none" stroke="#010202" stroke-miterlimit="10" d="
	M321.957,326.135l-12.274,7.086v14.174l12.274,7.086l12.274-7.086v-14.174L321.957,326.135z"/>
<path id="path48916_469_" inkscape:connector-curvature="0" fill="none" stroke="#010202" stroke-miterlimit="10" d="
	M334.231,347.395l-12.274,7.086v14.174l12.274,7.086l12.274-7.086V354.48L334.231,347.395z"/>
<path id="path48916_468_" inkscape:connector-curvature="0" fill="none" stroke="#010202" stroke-miterlimit="10" d="
	M346.506,368.654l-12.274,7.086v14.174L346.506,397l12.274-7.086V375.74L346.506,368.654z"/>
<path id="path48916_467_" inkscape:connector-curvature="0" fill="none" stroke="#010202" stroke-miterlimit="10" d="
	M358.78,389.914L346.506,397v14.174l12.274,7.086l12.274-7.086V397L358.78,389.914z"/>
<path id="path48916_466_" inkscape:connector-curvature="0" fill="none" stroke="#010202" stroke-miterlimit="10" d="
	M371.055,411.174l-12.274,7.086v14.174l12.274,7.086l12.274-7.086V418.26L371.055,411.174z"/>
<path id="path48916_465_" inkscape:connector-curvature="0" fill="none" stroke="#010202" stroke-miterlimit="10" d="
	M383.329,432.434l-12.274,7.086v14.174l12.274,7.086l12.274-7.086V439.52L383.329,432.434z"/>
<path id="path48916_464_" inkscape:connector-curvature="0" fill="none" stroke="#010202" stroke-miterlimit="10" d="
	M395.604,453.693l-12.274,7.086v14.174l12.274,7.086l12.274-7.086v-14.174L395.604,453.693z"/>
<path id="path48916_463_" inkscape:connector-curvature="0" fill="none" stroke="#010202" stroke-miterlimit="10" d="
	M407.878,474.953l-12.274,7.086v14.174l12.274,7.086l12.274-7.086v-14.174L407.878,474.953z"/>
<path id="path48916_462_" inkscape:connector-curvature="0" fill="none" stroke="#010202" stroke-miterlimit="10" d="
	M420.152,496.213l-12.274,7.086v14.174l12.274,7.086l12.274-7.086v-14.174L420.152,496.213z"/>
<path id="path48916_461_" inkscape:connector-curvature="0" fill="none" stroke="#010202" stroke-miterlimit="10" d="
	M346.506,326.135l-12.274,7.086v14.174l12.274,7.086l12.274-7.086v-14.174L346.506,326.135z"/>
<path id="path48916_460_" inkscape:connector-curvature="0" fill="none" stroke="#010202" stroke-miterlimit="10" d="
	M358.78,347.395l-12.274,7.086v14.174l12.274,7.086l12.274-7.086V354.48L358.78,347.395z"/>
<path id="path48916_459_" inkscape:connector-curvature="0" fill="none" stroke="#010202" stroke-miterlimit="10" d="
	M371.055,368.654l-12.274,7.086v14.174L371.055,397l12.274-7.086V375.74L371.055,368.654z"/>
<path id="path48916_458_" inkscape:connector-curvature="0" fill="none" stroke="#010202" stroke-miterlimit="10" d="
	M383.329,389.914L371.055,397v14.174l12.274,7.086l12.274-7.086V397L383.329,389.914z"/>
<path id="path48916_457_" inkscape:connector-curvature="0" fill="none" stroke="#010202" stroke-miterlimit="10" d="
	M395.604,411.174l-12.274,7.086v14.174l12.274,7.086l12.274-7.086V418.26L395.604,411.174z"/>
<path id="path48916_456_" inkscape:connector-curvature="0" fill="none" stroke="#010202" stroke-miterlimit="10" d="
	M407.878,432.434l-12.274,7.086v14.174l12.274,7.086l12.274-7.086V439.52L407.878,432.434z"/>
<path id="path48916_455_" inkscape:connector-curvature="0" fill="none" stroke="#010202" stroke-miterlimit="10" d="
	M420.152,453.693l-12.274,7.086v14.174l12.274,7.086l12.274-7.086v-14.174L420.152,453.693z"/>
<path id="path48916_454_" inkscape:connector-curvature="0" fill="none" stroke="#010202" stroke-miterlimit="10" d="
	M432.427,474.953l-12.274,7.086v14.174l12.274,7.086l12.274-7.086v-14.174L432.427,474.953z"/>
<path id="path48916_453_" inkscape:connector-curvature="0" fill="none" stroke="#010202" stroke-miterlimit="10" d="
	M444.701,496.213l-12.274,7.086v14.174l12.274,7.086l12.274-7.086v-14.174L444.701,496.213z"/>
<path id="path48916_452_" inkscape:connector-curvature="0" fill="none" stroke="#010202" stroke-miterlimit="10" d="
	M371.055,326.135l-12.274,7.086v14.174l12.274,7.086l12.274-7.086v-14.174L371.055,326.135z"/>
<path id="path48916_451_" inkscape:connector-curvature="0" fill="none" stroke="#010202" stroke-miterlimit="10" d="
	M383.329,347.395l-12.274,7.086v14.174l12.274,7.086l12.274-7.086V354.48L383.329,347.395z"/>
<path id="path48916_450_" inkscape:connector-curvature="0" fill="none" stroke="#010202" stroke-miterlimit="10" d="
	M395.604,368.654l-12.274,7.086v14.174L395.604,397l12.274-7.086V375.74L395.604,368.654z"/>
<path id="path48916_449_" inkscape:connector-curvature="0" fill="none" stroke="#010202" stroke-miterlimit="10" d="
	M407.878,389.914L395.604,397v14.174l12.274,7.086l12.274-7.086V397L407.878,389.914z"/>
<path id="path48916_448_" inkscape:connector-curvature="0" fill="none" stroke="#010202" stroke-miterlimit="10" d="
	M420.152,411.174l-12.274,7.086v14.174l12.274,7.086l12.274-7.086V418.26L420.152,411.174z"/>
<path id="path48916_447_" inkscape:connector-curvature="0" fill="none" stroke="#010202" stroke-miterlimit="10" d="
	M432.427,432.434l-12.274,7.086v14.174l12.274,7.086l12.274-7.086V439.52L432.427,432.434z"/>
<path id="path48916_446_" inkscape:connector-curvature="0" fill="none" stroke="#010202" stroke-miterlimit="10" d="
	M444.701,453.693l-12.274,7.086v14.174l12.274,7.086l12.274-7.086v-14.174L444.701,453.693z"/>
<path id="path48916_445_" inkscape:connector-curvature="0" fill="none" stroke="#010202" stroke-miterlimit="10" d="
	M456.976,474.953l-12.274,7.086v14.174l12.274,7.086l12.274-7.086v-14.174L456.976,474.953z"/>
<path id="path48916_444_" inkscape:connector-curvature="0" fill="none" stroke="#010202" stroke-miterlimit="10" d="
	M469.25,496.213l-12.274,7.086v14.174l12.274,7.086l12.274-7.086v-14.174L469.25,496.213z"/>
<path id="path48916_443_" inkscape:connector-curvature="0" fill="none" stroke="#010202" stroke-miterlimit="10" d="
	M395.604,326.135l-12.274,7.086v14.174l12.274,7.086l12.274-7.086v-14.174L395.604,326.135z"/>
<path id="path48916_442_" inkscape:connector-curvature="0" fill="none" stroke="#010202" stroke-miterlimit="10" d="
	M407.878,347.395l-12.274,7.086v14.174l12.274,7.086l12.274-7.086V354.48L407.878,347.395z"/>
<path id="path48916_441_" inkscape:connector-curvature="0" fill="none" stroke="#010202" stroke-miterlimit="10" d="
	M420.152,368.654l-12.274,7.086v14.174L420.152,397l12.274-7.086V375.74L420.152,368.654z"/>
<path id="path48916_440_" inkscape:connector-curvature="0" fill="none" stroke="#010202" stroke-miterlimit="10" d="
	M432.427,389.914L420.152,397v14.174l12.274,7.086l12.274-7.086V397L432.427,389.914z"/>
<path id="path48916_439_" inkscape:connector-curvature="0" fill="none" stroke="#010202" stroke-miterlimit="10" d="
	M444.701,411.174l-12.274,7.086v14.174l12.274,7.086l12.274-7.086V418.26L444.701,411.174z"/>
<path id="path48916_438_" inkscape:connector-curvature="0" fill="none" stroke="#010202" stroke-miterlimit="10" d="
	M456.976,432.434l-12.274,7.086v14.174l12.274,7.086l12.274-7.086V439.52L456.976,432.434z"/>
<path id="path48916_437_" inkscape:connector-curvature="0" fill="none" stroke="#010202" stroke-miterlimit="10" d="
	M469.25,453.693l-12.274,7.086v14.174l12.274,7.086l12.274-7.086v-14.174L469.25,453.693z"/>
<path id="path48916_436_" inkscape:connector-curvature="0" fill="none" stroke="#010202" stroke-miterlimit="10" d="
	M481.524,474.953l-12.274,7.086v14.174l12.274,7.086l12.274-7.086v-14.174L481.524,474.953z"/>
<path id="path48916_435_" inkscape:connector-curvature="0" fill="none" stroke="#010202" stroke-miterlimit="10" d="
	M493.799,496.213l-12.274,7.086v14.174l12.274,7.086l12.274-7.086v-14.174L493.799,496.213z"/>
<path id="path48916_434_" inkscape:connector-curvature="0" fill="none" stroke="#010202" stroke-miterlimit="10" d="
	M420.152,326.135l-12.274,7.086v14.174l12.274,7.086l12.274-7.086v-14.174L420.152,326.135z"/>
<path id="path48916_433_" inkscape:connector-curvature="0" fill="none" stroke="#010202" stroke-miterlimit="10" d="
	M432.427,347.395l-12.274,7.086v14.174l12.274,7.086l12.274-7.086V354.48L432.427,347.395z"/>
<path id="path48916_432_" inkscape:connector-curvature="0" fill="none" stroke="#010202" stroke-miterlimit="10" d="
	M444.701,368.654l-12.274,7.086v14.174L444.701,397l12.274-7.086V375.74L444.701,368.654z"/>
<path id="path48916_431_" inkscape:connector-curvature="0" fill="none" stroke="#010202" stroke-miterlimit="10" d="
	M456.976,389.914L444.701,397v14.174l12.274,7.086l12.274-7.086V397L456.976,389.914z"/>
<path id="path48916_430_" inkscape:connector-curvature="0" fill="none" stroke="#010202" stroke-miterlimit="10" d="
	M469.25,411.174l-12.274,7.086v14.174l12.274,7.086l12.274-7.086V418.26L469.25,411.174z"/>
<path id="path48916_429_" inkscape:connector-curvature="0" fill="none" stroke="#010202" stroke-miterlimit="10" d="
	M481.524,432.434l-12.274,7.086v14.174l12.274,7.086l12.274-7.086V439.52L481.524,432.434z"/>
<path id="path48916_428_" inkscape:connector-curvature="0" fill="none" stroke="#010202" stroke-miterlimit="10" d="
	M493.799,453.693l-12.274,7.086v14.174l12.274,7.086l12.274-7.086v-14.174L493.799,453.693z"/>
<path id="path48916_427_" inkscape:connector-curvature="0" fill="none" stroke="#010202" stroke-miterlimit="10" d="
	M506.073,474.953l-12.274,7.086v14.174l12.274,7.086l12.274-7.086v-14.174L506.073,474.953z"/>
<path id="path48916_426_" inkscape:connector-curvature="0" fill="none" stroke="#010202" stroke-miterlimit="10" d="
	M518.348,496.213l-12.274,7.086v14.174l12.274,7.086l12.274-7.086v-14.174L518.348,496.213z"/>
<path id="path48916_425_" inkscape:connector-curvature="0" fill="none" stroke="#010202" stroke-miterlimit="10" d="
	M444.701,326.135l-12.274,7.086v14.174l12.274,7.086l12.274-7.086v-14.174L444.701,326.135z"/>
<path id="path48916_424_" inkscape:connector-curvature="0" fill="none" stroke="#010202" stroke-miterlimit="10" d="
	M469.25,326.135l-12.274,7.086v14.174l12.274,7.086l12.274-7.086v-14.174L469.25,326.135z"/>
<path id="path48916_423_" inkscape:connector-curvature="0" fill="none" stroke="#010202" stroke-miterlimit="10" d="
	M493.799,326.135l-12.274,7.086v14.174l12.274,7.086l12.274-7.086v-14.174L493.799,326.135z"/>
<path id="path48916_422_" inkscape:connector-curvature="0" fill="none" stroke="#010202" stroke-miterlimit="10" d="
	M518.348,326.135l-12.274,7.086v14.174l12.274,7.086l12.274-7.086v-14.174L518.348,326.135z"/>
<path id="path48916_421_" inkscape:connector-curvature="0" fill="none" stroke="#010202" stroke-miterlimit="10" d="
	M542.896,326.135l-12.274,7.086v14.174l12.274,7.086l12.274-7.086v-14.174L542.896,326.135z"/>
<path id="path48916_420_" inkscape:connector-curvature="0" fill="none" stroke="#010202" stroke-miterlimit="10" d="
	M567.445,326.135l-12.274,7.086v14.174l12.274,7.086l12.274-7.086v-14.174L567.445,326.135z"/>
<path id="path48916_419_" inkscape:connector-curvature="0" fill="none" stroke="#010202" stroke-miterlimit="10" d="
	M591.994,326.135l-12.274,7.086v14.174l12.274,7.086l12.274-7.086v-14.174L591.994,326.135z"/>
<path id="path48916_418_" inkscape:connector-curvature="0" fill="none" stroke="#010202" stroke-miterlimit="10" d="
	M616.543,326.135l-12.274,7.086v14.174l12.274,7.086l12.274-7.086v-14.174L616.543,326.135z"/>
<path id="path48916_417_" inkscape:connector-curvature="0" fill="none" stroke="#010202" stroke-miterlimit="10" d="
	M641.092,326.135l-12.274,7.086v14.174l12.274,7.086l12.274-7.086v-14.174L641.092,326.135z"/>
<path id="path48916_416_" inkscape:connector-curvature="0" fill="none" stroke="#010202" stroke-miterlimit="10" d="
	M456.976,347.395l-12.274,7.086v14.174l12.274,7.086l12.274-7.086V354.48L456.976,347.395z"/>
<path id="path48916_415_" inkscape:connector-curvature="0" fill="none" stroke="#010202" stroke-miterlimit="10" d="
	M481.523,347.395l-12.274,7.086v14.174l12.274,7.086l12.274-7.086V354.48L481.523,347.395z"/>
<path id="path48916_414_" inkscape:connector-curvature="0" fill="none" stroke="#010202" stroke-miterlimit="10" d="
	M506.071,347.395l-12.274,7.086v14.174l12.274,7.086l12.274-7.086V354.48L506.071,347.395z"/>
<path id="path48916_413_" inkscape:connector-curvature="0" fill="none" stroke="#010202" stroke-miterlimit="10" d="
	M530.619,347.395l-12.274,7.086v14.174l12.274,7.086l12.274-7.086V354.48L530.619,347.395z"/>
<path id="path48916_412_" inkscape:connector-curvature="0" fill="none" stroke="#010202" stroke-miterlimit="10" d="
	M555.167,347.395l-12.274,7.086v14.174l12.274,7.086l12.274-7.086V354.48L555.167,347.395z"/>
<path id="path48916_411_" inkscape:connector-curvature="0" fill="none" stroke="#010202" stroke-miterlimit="10" d="
	M579.715,347.395l-12.274,7.086v14.174l12.274,7.086l12.274-7.086V354.48L579.715,347.395z"/>
<path id="path48916_410_" inkscape:connector-curvature="0" fill="none" stroke="#010202" stroke-miterlimit="10" d="
	M604.263,347.395l-12.274,7.086v14.174l12.274,7.086l12.274-7.086V354.48L604.263,347.395z"/>
<path id="path48916_409_" inkscape:connector-curvature="0" fill="none" stroke="#010202" stroke-miterlimit="10" d="
	M628.811,347.395l-12.274,7.086v14.174l12.274,7.086l12.274-7.086V354.48L628.811,347.395z"/>
<path id="path48916_408_" inkscape:connector-curvature="0" fill="none" stroke="#010202" stroke-miterlimit="10" d="
	M469.25,368.654l-12.274,7.086v14.174L469.25,397l12.274-7.086V375.74L469.25,368.654z"/>
<path id="path48916_407_" inkscape:connector-curvature="0" fill="none" stroke="#010202" stroke-miterlimit="10" d="
	M493.799,368.654l-12.274,7.086v14.174L493.799,397l12.274-7.086V375.74L493.799,368.654z"/>
<path id="path48916_406_" inkscape:connector-curvature="0" fill="none" stroke="#010202" stroke-miterlimit="10" d="
	M518.348,368.654l-12.274,7.086v14.174L518.348,397l12.274-7.086V375.74L518.348,368.654z"/>
<path id="path48916_405_" inkscape:connector-curvature="0" fill="none" stroke="#010202" stroke-miterlimit="10" d="
	M542.896,368.654l-12.274,7.086v14.174L542.896,397l12.274-7.086V375.74L542.896,368.654z"/>
<path id="path48916_404_" inkscape:connector-curvature="0" fill="none" stroke="#010202" stroke-miterlimit="10" d="
	M567.445,368.654l-12.274,7.086v14.174L567.445,397l12.274-7.086V375.74L567.445,368.654z"/>
<path id="path48916_403_" inkscape:connector-curvature="0" fill="none" stroke="#010202" stroke-miterlimit="10" d="
	M591.994,368.654l-12.274,7.086v14.174L591.994,397l12.274-7.086V375.74L591.994,368.654z"/>
<path id="path48916_402_" inkscape:connector-curvature="0" fill="none" stroke="#010202" stroke-miterlimit="10" d="
	M616.543,368.654l-12.274,7.086v14.174L616.543,397l12.274-7.086V375.74L616.543,368.654z"/>
<path id="path48916_401_" inkscape:connector-curvature="0" fill="none" stroke="#010202" stroke-miterlimit="10" d="
	M481.524,389.914L469.25,397v14.174l12.274,7.086l12.274-7.086V397L481.524,389.914z"/>
<path id="path48916_400_" inkscape:connector-curvature="0" fill="none" stroke="#010202" stroke-miterlimit="10" d="
	M506.073,389.914L493.799,397v14.174l12.274,7.086l12.274-7.086V397L506.073,389.914z"/>
<path id="path48916_399_" inkscape:connector-curvature="0" fill="none" stroke="#010202" stroke-miterlimit="10" d="
	M530.622,389.914L518.348,397v14.174l12.274,7.086l12.274-7.086V397L530.622,389.914z"/>
<path id="path48916_398_" inkscape:connector-curvature="0" fill="none" stroke="#010202" stroke-miterlimit="10" d="
	M555.171,389.914L542.896,397v14.174l12.274,7.086l12.274-7.086V397L555.171,389.914z"/>
<path id="path48916_397_" inkscape:connector-curvature="0" fill="none" stroke="#010202" stroke-miterlimit="10" d="
	M579.72,389.914L567.445,397v14.174l12.274,7.086l12.274-7.086V397L579.72,389.914z"/>
<path id="path48916_396_" inkscape:connector-curvature="0" fill="none" stroke="#010202" stroke-miterlimit="10" d="
	M604.269,389.914L591.994,397v14.174l12.274,7.086l12.274-7.086V397L604.269,389.914z"/>
<path id="path48916_395_" inkscape:connector-curvature="0" fill="none" stroke="#010202" stroke-miterlimit="10" d="
	M493.799,411.174l-12.274,7.086v14.174l12.274,7.086l12.274-7.086V418.26L493.799,411.174z"/>
<path id="path48916_394_" inkscape:connector-curvature="0" fill="none" stroke="#010202" stroke-miterlimit="10" d="
	M518.345,411.174l-12.274,7.086v14.174l12.274,7.086l12.274-7.086V418.26L518.345,411.174z"/>
<path id="path48916_393_" inkscape:connector-curvature="0" fill="none" stroke="#010202" stroke-miterlimit="10" d="
	M542.891,411.174l-12.274,7.086v14.174l12.274,7.086l12.274-7.086V418.26L542.891,411.174z"/>
<path id="path48916_392_" inkscape:connector-curvature="0" fill="none" stroke="#010202" stroke-miterlimit="10" d="
	M567.437,411.174l-12.274,7.086v14.174l12.274,7.086l12.274-7.086V418.26L567.437,411.174z"/>
<path id="path48916_391_" inkscape:connector-curvature="0" fill="none" stroke="#010202" stroke-miterlimit="10" d="
	M591.982,411.174l-12.274,7.086v14.174l12.274,7.086l12.274-7.086V418.26L591.982,411.174z"/>
<path id="path48916_390_" inkscape:connector-curvature="0" fill="none" stroke="#010202" stroke-miterlimit="10" d="
	M506.073,432.434l-12.274,7.086v14.174l12.274,7.086l12.274-7.086V439.52L506.073,432.434z"/>
<path id="path48916_389_" inkscape:connector-curvature="0" fill="none" stroke="#010202" stroke-miterlimit="10" d="
	M530.616,432.434l-12.274,7.086v14.174l12.274,7.086l12.274-7.086V439.52L530.616,432.434z"/>
<path id="path48916_388_" inkscape:connector-curvature="0" fill="none" stroke="#010202" stroke-miterlimit="10" d="
	M555.159,432.434l-12.274,7.086v14.174l12.274,7.086l12.274-7.086V439.52L555.159,432.434z"/>
<path id="path48916_387_" inkscape:connector-curvature="0" fill="none" stroke="#010202" stroke-miterlimit="10" d="
	M579.702,432.434l-12.274,7.086v14.174l12.274,7.086l12.274-7.086V439.52L579.702,432.434z"/>
<path id="path48916_386_" inkscape:connector-curvature="0" fill="none" stroke="#010202" stroke-miterlimit="10" d="
	M518.348,453.693l-12.274,7.086v14.174l12.274,7.086l12.274-7.086v-14.174L518.348,453.693z"/>
<path id="path48916_385_" inkscape:connector-curvature="0" fill="none" stroke="#010202" stroke-miterlimit="10" d="
	M542.896,453.693l-12.274,7.086v14.174l12.274,7.086l12.274-7.086v-14.174L542.896,453.693z"/>
<path id="path48916_384_" inkscape:connector-curvature="0" fill="none" stroke="#010202" stroke-miterlimit="10" d="
	M567.445,453.693l-12.274,7.086v14.174l12.274,7.086l12.274-7.086v-14.174L567.445,453.693z"/>
<path id="path48916_383_" inkscape:connector-curvature="0" fill="none" stroke="#010202" stroke-miterlimit="10" d="
	M530.622,474.953l-12.274,7.086v14.174l12.274,7.086l12.274-7.086v-14.174L530.622,474.953z"/>
<path id="path48916_382_" inkscape:connector-curvature="0" fill="none" stroke="#010202" stroke-miterlimit="10" d="
	M555.171,474.953l-12.274,7.086v14.174l12.274,7.086l12.274-7.086v-14.174L555.171,474.953z"/>
<path id="path48916_381_" inkscape:connector-curvature="0" fill="none" stroke="#010202" stroke-miterlimit="10" d="
	M542.896,496.213l-12.274,7.086v14.174l12.274,7.086l12.274-7.086v-14.174L542.896,496.213z"/>
<path id="path48916_380_" inkscape:connector-curvature="0" fill="none" stroke="#010202" stroke-miterlimit="10" d="
	M211.487,304.875l-12.274,7.086v14.174l12.274,7.086l12.274-7.086v-14.174L211.487,304.875z"/>
<path id="path48916_379_" inkscape:connector-curvature="0" fill="none" stroke="#010202" stroke-miterlimit="10" d="
	M236.036,304.875l-12.274,7.086v14.174l12.274,7.086l12.274-7.086v-14.174L236.036,304.875z"/>
<path id="path48916_378_" inkscape:connector-curvature="0" fill="none" stroke="#010202" stroke-miterlimit="10" d="
	M260.585,304.875l-12.274,7.086v14.174l12.274,7.086l12.274-7.086v-14.174L260.585,304.875z"/>
<path id="path48916_377_" inkscape:connector-curvature="0" fill="none" stroke="#010202" stroke-miterlimit="10" d="
	M285.134,304.875l-12.274,7.086v14.174l12.274,7.086l12.274-7.086v-14.174L285.134,304.875z"/>
<path id="path48916_376_" inkscape:connector-curvature="0" fill="none" stroke="#010202" stroke-miterlimit="10" d="
	M309.683,304.875l-12.274,7.086v14.174l12.274,7.086l12.274-7.086v-14.174L309.683,304.875z"/>
<path id="path48916_375_" inkscape:connector-curvature="0" fill="none" stroke="#010202" stroke-miterlimit="10" d="
	M334.231,304.875l-12.274,7.086v14.174l12.274,7.086l12.274-7.086v-14.174L334.231,304.875z"/>
<path id="path48916_374_" inkscape:connector-curvature="0" fill="none" stroke="#010202" stroke-miterlimit="10" d="
	M358.78,304.875l-12.274,7.086v14.174l12.274,7.086l12.274-7.086v-14.174L358.78,304.875z"/>
<path id="path48916_373_" inkscape:connector-curvature="0" fill="none" stroke="#010202" stroke-miterlimit="10" d="
	M383.329,304.875l-12.274,7.086v14.174l12.274,7.086l12.274-7.086v-14.174L383.329,304.875z"/>
<path id="path48916_372_" inkscape:connector-curvature="0" fill="none" stroke="#010202" stroke-miterlimit="10" d="
	M407.878,304.875l-12.274,7.086v14.174l12.274,7.086l12.274-7.086v-14.174L407.878,304.875z"/>
<path id="path48916_371_" inkscape:connector-curvature="0" fill="none" stroke="#010202" stroke-miterlimit="10" d="
	M432.427,304.875l-12.274,7.086v14.174l12.274,7.086l12.274-7.086v-14.174L432.427,304.875z"/>
<path id="path48916_370_" inkscape:connector-curvature="0" fill="none" stroke="#010202" stroke-miterlimit="10" d="
	M456.976,304.875l-12.274,7.086v14.174l12.274,7.086l12.274-7.086v-14.174L456.976,304.875z"/>
<path id="path48916_369_" inkscape:connector-curvature="0" fill="none" stroke="#010202" stroke-miterlimit="10" d="
	M481.524,304.875l-12.274,7.086v14.174l12.274,7.086l12.274-7.086v-14.174L481.524,304.875z"/>
<path id="path48916_368_" inkscape:connector-curvature="0" fill="none" stroke="#010202" stroke-miterlimit="10" d="
	M506.073,304.875l-12.274,7.086v14.174l12.274,7.086l12.274-7.086v-14.174L506.073,304.875z"/>
<path id="path48916_367_" inkscape:connector-curvature="0" fill="none" stroke="#010202" stroke-miterlimit="10" d="
	M530.622,304.875l-12.274,7.086v14.174l12.274,7.086l12.274-7.086v-14.174L530.622,304.875z"/>
<path id="path48916_366_" inkscape:connector-curvature="0" fill="none" stroke="#010202" stroke-miterlimit="10" d="
	M555.171,304.875l-12.274,7.086v14.174l12.274,7.086l12.274-7.086v-14.174L555.171,304.875z"/>
<path id="path48916_365_" inkscape:connector-curvature="0" fill="none" stroke="#010202" stroke-miterlimit="10" d="
	M579.72,304.875l-12.274,7.086v14.174l12.274,7.086l12.274-7.086v-14.174L579.72,304.875z"/>
<path id="path48916_364_" inkscape:connector-curvature="0" fill="none" stroke="#010202" stroke-miterlimit="10" d="
	M604.269,304.875l-12.274,7.086v14.174l12.274,7.086l12.274-7.086v-14.174L604.269,304.875z"/>
<path id="path48916_363_" inkscape:connector-curvature="0" fill="none" stroke="#010202" stroke-miterlimit="10" d="
	M628.817,304.875l-12.274,7.086v14.174l12.274,7.086l12.274-7.086v-14.174L628.817,304.875z"/>
<path id="path48916_362_" inkscape:connector-curvature="0" fill="none" stroke="#010202" stroke-miterlimit="10" d="
	M653.366,304.875l-12.274,7.086v14.174l12.274,7.086l12.274-7.086v-14.174L653.366,304.875z"/>
<path id="path48916_361_" inkscape:connector-curvature="0" fill="none" stroke="#010202" stroke-miterlimit="10" d="
	M199.213,283.467l-12.274,7.086v14.173l12.274,7.086l12.274-7.086v-14.173L199.213,283.467z"/>
<path id="path48916_360_" inkscape:connector-curvature="0" fill="none" stroke="#010202" stroke-miterlimit="10" d="
	M223.762,283.467l-12.274,7.086v14.173l12.274,7.086l12.274-7.086v-14.173L223.762,283.467z"/>
<path id="path48916_359_" inkscape:connector-curvature="0" fill="none" stroke="#010202" stroke-miterlimit="10" d="
	M248.311,283.467l-12.274,7.086v14.173l12.274,7.086l12.274-7.086v-14.173L248.311,283.467z"/>
<path id="path48916_358_" inkscape:connector-curvature="0" fill="none" stroke="#010202" stroke-miterlimit="10" d="
	M272.859,283.467l-12.274,7.086v14.173l12.274,7.086l12.274-7.086v-14.173L272.859,283.467z"/>
<path id="path48916_357_" inkscape:connector-curvature="0" fill="none" stroke="#010202" stroke-miterlimit="10" d="
	M297.408,283.467l-12.274,7.086v14.173l12.274,7.086l12.274-7.086v-14.173L297.408,283.467z"/>
<path id="path48916_356_" inkscape:connector-curvature="0" fill="none" stroke="#010202" stroke-miterlimit="10" d="
	M321.957,283.467l-12.274,7.086v14.173l12.274,7.086l12.274-7.086v-14.173L321.957,283.467z"/>
<path id="path48916_355_" inkscape:connector-curvature="0" fill="none" stroke="#010202" stroke-miterlimit="10" d="
	M346.506,283.467l-12.274,7.086v14.173l12.274,7.086l12.274-7.086v-14.173L346.506,283.467z"/>
<path id="path48916_354_" inkscape:connector-curvature="0" fill="none" stroke="#010202" stroke-miterlimit="10" d="
	M371.055,283.467l-12.274,7.086v14.173l12.274,7.086l12.274-7.086v-14.173L371.055,283.467z"/>
<path id="path48916_353_" inkscape:connector-curvature="0" fill="none" stroke="#010202" stroke-miterlimit="10" d="
	M395.604,283.467l-12.274,7.086v14.173l12.274,7.086l12.274-7.086v-14.173L395.604,283.467z"/>
<path id="path48916_352_" inkscape:connector-curvature="0" fill="none" stroke="#010202" stroke-miterlimit="10" d="
	M420.152,283.467l-12.274,7.086v14.173l12.274,7.086l12.274-7.086v-14.173L420.152,283.467z"/>
<path id="path48916_351_" inkscape:connector-curvature="0" fill="none" stroke="#010202" stroke-miterlimit="10" d="
	M444.701,283.467l-12.274,7.086v14.173l12.274,7.086l12.274-7.086v-14.173L444.701,283.467z"/>
<path id="path48916_350_" inkscape:connector-curvature="0" fill="none" stroke="#010202" stroke-miterlimit="10" d="
	M469.25,283.467l-12.274,7.086v14.173l12.274,7.086l12.274-7.086v-14.173L469.25,283.467z"/>
<path id="path48916_349_" inkscape:connector-curvature="0" fill="none" stroke="#010202" stroke-miterlimit="10" d="
	M493.799,283.467l-12.274,7.086v14.173l12.274,7.086l12.274-7.086v-14.173L493.799,283.467z"/>
<path id="path48916_348_" inkscape:connector-curvature="0" fill="none" stroke="#010202" stroke-miterlimit="10" d="
	M518.348,283.467l-12.274,7.086v14.173l12.274,7.086l12.274-7.086v-14.173L518.348,283.467z"/>
<path id="path48916_347_" inkscape:connector-curvature="0" fill="none" stroke="#010202" stroke-miterlimit="10" d="
	M542.896,283.467l-12.274,7.086v14.173l12.274,7.086l12.274-7.086v-14.173L542.896,283.467z"/>
<path id="path48916_346_" inkscape:connector-curvature="0" fill="none" stroke="#010202" stroke-miterlimit="10" d="
	M567.445,283.467l-12.274,7.086v14.173l12.274,7.086l12.274-7.086v-14.173L567.445,283.467z"/>
<path id="path48916_345_" inkscape:connector-curvature="0" fill="none" stroke="#010202" stroke-miterlimit="10" d="
	M591.994,283.467l-12.274,7.086v14.173l12.274,7.086l12.274-7.086v-14.173L591.994,283.467z"/>
<path id="path48916_344_" inkscape:connector-curvature="0" fill="none" stroke="#010202" stroke-miterlimit="10" d="
	M616.543,283.467l-12.274,7.086v14.173l12.274,7.086l12.274-7.086v-14.173L616.543,283.467z"/>
<path id="path48916_343_" inkscape:connector-curvature="0" fill="none" stroke="#010202" stroke-miterlimit="10" d="
	M641.092,283.467l-12.274,7.086v14.173l12.274,7.086l12.274-7.086v-14.173L641.092,283.467z"/>
<path id="path48916_342_" inkscape:connector-curvature="0" fill="none" stroke="#010202" stroke-miterlimit="10" d="
	M665.641,283.467l-12.274,7.086v14.173l12.274,7.086l12.274-7.086v-14.173L665.641,283.467z"/>
<path id="path48916_341_" inkscape:connector-curvature="0" fill="none" stroke="#010202" stroke-miterlimit="10" d="
	M321.957,71.017l-12.274,7.086v14.174l12.274,7.086l12.274-7.086V78.103L321.957,71.017z"/>
<path id="path48916_340_" inkscape:connector-curvature="0" fill="none" stroke="#010202" stroke-miterlimit="10" d="
	M346.506,71.017l-12.274,7.086v14.174l12.274,7.086l12.274-7.086V78.103L346.506,71.017z"/>
<path id="path48916_339_" inkscape:connector-curvature="0" fill="none" stroke="#010202" stroke-miterlimit="10" d="
	M371.055,71.017l-12.274,7.086v14.174l12.274,7.086l12.274-7.086V78.103L371.055,71.017z"/>
<path id="path48916_338_" inkscape:connector-curvature="0" fill="none" stroke="#010202" stroke-miterlimit="10" d="
	M395.604,71.017l-12.274,7.086v14.174l12.274,7.086l12.274-7.086V78.103L395.604,71.017z"/>
<path id="path48916_337_" inkscape:connector-curvature="0" fill="none" stroke="#010202" stroke-miterlimit="10" d="
	M420.152,71.017l-12.274,7.086v14.174l12.274,7.086l12.274-7.086V78.103L420.152,71.017z"/>
<path id="path48916_336_" inkscape:connector-curvature="0" fill="none" stroke="#010202" stroke-miterlimit="10" d="
	M444.701,71.017l-12.274,7.086v14.174l12.274,7.086l12.274-7.086V78.103L444.701,71.017z"/>
<path id="path48916_335_" inkscape:connector-curvature="0" fill="none" stroke="#010202" stroke-miterlimit="10" d="M469.25,71.017
	l-12.274,7.086v14.174l12.274,7.086l12.274-7.086V78.103L469.25,71.017z"/>
<path id="path48916_334_" inkscape:connector-curvature="0" fill="none" stroke="#010202" stroke-miterlimit="10" d="
	M493.799,71.017l-12.274,7.086v14.174l12.274,7.086l12.274-7.086V78.103L493.799,71.017z"/>
<path id="path48916_333_" inkscape:connector-curvature="0" fill="none" stroke="#010202" stroke-miterlimit="10" d="
	M518.348,71.017l-12.274,7.086v14.174l12.274,7.086l12.274-7.086V78.103L518.348,71.017z"/>
<path id="path48916_332_" inkscape:connector-curvature="0" fill="none" stroke="#010202" stroke-miterlimit="10" d="
	M542.896,71.017l-12.274,7.086v14.174l12.274,7.086l12.274-7.086V78.103L542.896,71.017z"/>
<path id="path48954_1_" inkscape:connector-curvature="0" fill="none" stroke="#010202" stroke-miterlimit="10" d="M309.683,545.819
	l-12.274-7.087V524.56l12.274-7.087l12.274,7.087v14.173L309.683,545.819z"/>
<path id="path48956_1_" inkscape:connector-curvature="0" fill="none" stroke="#010202" stroke-miterlimit="10" d="M334.231,545.819
	l-12.274-7.087V524.56l12.274-7.087l12.274,7.087v14.173L334.231,545.819z"/>
<path id="path48958_1_" inkscape:connector-curvature="0" fill="none" stroke="#010202" stroke-miterlimit="10" d="M358.78,545.819
	l-12.274-7.087V524.56l12.274-7.087l12.273,7.087v14.173L358.78,545.819z"/>
<path id="path48960_1_" inkscape:connector-curvature="0" fill="none" stroke="#010202" stroke-miterlimit="10" d="M383.328,545.819
	l-12.274-7.087V524.56l12.274-7.087l12.274,7.087v14.173L383.328,545.819z"/>
<path id="path48962_1_" inkscape:connector-curvature="0" fill="none" stroke="#010202" stroke-miterlimit="10" d="M407.877,545.819
	l-12.274-7.087V524.56l12.274-7.087l12.274,7.087v14.173L407.877,545.819z"/>
<path id="path48964_1_" inkscape:connector-curvature="0" fill="none" stroke="#010202" stroke-miterlimit="10" d="M432.426,545.819
	l-12.274-7.087V524.56l12.274-7.087l12.274,7.087v14.173L432.426,545.819z"/>
<path id="path48966_1_" inkscape:connector-curvature="0" fill="none" stroke="#010202" stroke-miterlimit="10" d="M456.975,545.819
	l-12.274-7.087V524.56l12.274-7.087l12.274,7.087v14.173L456.975,545.819z"/>
<path id="path48968_1_" inkscape:connector-curvature="0" fill="none" stroke="#010202" stroke-miterlimit="10" d="M481.523,545.819
	l-12.274-7.087V524.56l12.274-7.087l12.274,7.087v14.173L481.523,545.819z"/>
<path id="path48970_1_" inkscape:connector-curvature="0" fill="none" stroke="#010202" stroke-miterlimit="10" d="M506.072,545.819
	l-12.274-7.087V524.56l12.274-7.087l12.274,7.087v14.173L506.072,545.819z"/>
<path id="path48972_1_" inkscape:connector-curvature="0" fill="none" stroke="#010202" stroke-miterlimit="10" d="M530.621,545.819
	l-12.274-7.087V524.56l12.274-7.087l12.274,7.087v14.173L530.621,545.819z"/>
<g>
	<path id="path48908_1_" inkscape:connector-curvature="0" fill="none" stroke="#010202" stroke-miterlimit="10" d="
		M236.036,134.796l-12.274,7.087v14.173l12.274,7.087l12.274-7.087v-14.173L236.036,134.796L236.036,134.796z"/>
	<path id="path48910_1_" inkscape:connector-curvature="0" fill="none" stroke="#010202" stroke-miterlimit="10" d="
		M248.311,113.536l-12.274,7.087v14.173l12.274,7.087l12.274-7.087v-14.173L248.311,113.536z"/>
	<path id="path48912_1_" inkscape:connector-curvature="0" fill="none" stroke="#010202" stroke-miterlimit="10" d="M260.585,92.276
		l-12.274,7.086v14.174l12.274,7.087l12.274-7.087V99.362L260.585,92.276z"/>
	<path id="path48914_1_" inkscape:connector-curvature="0" fill="none" stroke="#010202" stroke-miterlimit="10" d="M272.859,71.017
		l-12.274,7.086v14.174l12.274,7.086l12.274-7.086V78.103L272.859,71.017z"/>
	<path id="path48916_663_" inkscape:connector-curvature="0" fill="none" stroke="#010202" stroke-miterlimit="10" d="
		M285.134,49.757l-12.274,7.086v14.174l12.274,7.086l12.274-7.086V56.843L285.134,49.757z"/>
	<path id="path48918_1_" inkscape:connector-curvature="0" fill="none" stroke="#010202" stroke-miterlimit="10" d="
		M174.664,241.095l-12.274,7.087v14.173l12.274,7.087l12.274-7.087v-14.173L174.664,241.095z"/>
	<path id="path48920_1_" inkscape:connector-curvature="0" fill="none" stroke="#010202" stroke-miterlimit="10" d="
		M186.938,219.835l-12.274,7.087v14.173l12.274,7.087l12.274-7.087v-14.173L186.938,219.835z"/>
	<path id="path48922_1_" inkscape:connector-curvature="0" fill="none" stroke="#010202" stroke-miterlimit="10" d="
		M199.213,198.575l-12.274,7.087v14.173l12.274,7.087l12.274-7.087v-14.173L199.213,198.575z"/>
	<path id="path48924_1_" inkscape:connector-curvature="0" fill="none" stroke="#010202" stroke-miterlimit="10" d="
		M211.487,177.315l-12.274,7.087v14.173l12.274,7.087l12.274-7.087v-14.173L211.487,177.315z"/>
	<path id="path48926_1_" inkscape:connector-curvature="0" fill="none" stroke="#010202" stroke-miterlimit="10" d="
		M223.762,156.056l-12.274,7.087v14.173l12.274,7.087l12.274-7.087v-14.173L223.762,156.056z"/>
	<path id="path48928_1_" inkscape:connector-curvature="0" fill="none" stroke="#010202" stroke-miterlimit="10" d="
		M150.115,283.614l-12.274,7.087v14.174l12.274,7.086l12.274-7.086v-14.174L150.115,283.614z"/>
	<path id="path48930_1_" inkscape:connector-curvature="0" fill="none" stroke="#010202" stroke-miterlimit="10" d="M162.39,262.354
		l-12.274,7.087v14.173l12.274,7.087l12.274-7.087v-14.173L162.39,262.354z"/>
	<path id="path48932_1_" inkscape:connector-curvature="0" fill="none" stroke="#010202" stroke-miterlimit="10" d="M236.036,460.78
		l-12.274-7.087v-14.173l12.274-7.087l12.274,7.087v14.173L236.036,460.78z"/>
	<path id="path48934_1_" inkscape:connector-curvature="0" fill="none" stroke="#010202" stroke-miterlimit="10" d="M248.311,482.04
		l-12.274-7.087V460.78l12.274-7.087l12.274,7.087v14.173L248.311,482.04z"/>
	<path id="path48936_1_" inkscape:connector-curvature="0" fill="none" stroke="#010202" stroke-miterlimit="10" d="M260.585,503.3
		l-12.274-7.087V482.04l12.274-7.087l12.274,7.087v14.173L260.585,503.3z"/>
	<path id="path48938_1_" inkscape:connector-curvature="0" fill="none" stroke="#010202" stroke-miterlimit="10" d="M272.859,524.56
		l-12.274-7.087V503.3l12.274-7.087l12.274,7.087v14.173L272.859,524.56z"/>
	<path id="path48940_1_" inkscape:connector-curvature="0" fill="none" stroke="#010202" stroke-miterlimit="10" d="
		M285.134,545.819l-12.274-7.087V524.56l12.274-7.087l12.274,7.087v14.173L285.134,545.819z"/>
	<path id="path48942_1_" inkscape:connector-curvature="0" fill="none" stroke="#010202" stroke-miterlimit="10" d="M174.664,354.48
		l-12.274-7.086v-14.174l12.274-7.086l12.274,7.086v14.174L174.664,354.48z"/>
	<path id="path48944_1_" inkscape:connector-curvature="0" fill="none" stroke="#010202" stroke-miterlimit="10" d="M186.938,375.74
		l-12.274-7.086V354.48l12.274-7.086l12.274,7.086v14.174L186.938,375.74z"/>
	<path id="path48946_1_" inkscape:connector-curvature="0" fill="none" stroke="#010202" stroke-miterlimit="10" d="
		M199.213,397.001l-12.274-7.087V375.74l12.274-7.086l12.274,7.086v14.174L199.213,397.001z"/>
	<path id="path48948_1_" inkscape:connector-curvature="0" fill="none" stroke="#010202" stroke-miterlimit="10" d="
		M211.487,418.261l-12.274-7.087V397l12.274-7.086L223.762,397v14.174L211.487,418.261z"/>
	<path id="path48950_1_" inkscape:connector-curvature="0" fill="none" stroke="#010202" stroke-miterlimit="10" d="
		M223.762,439.521l-12.274-7.087v-14.173l12.274-7.087l12.274,7.087v14.173L223.762,439.521z"/>
	<path id="path48952_1_" inkscape:connector-curvature="0" fill="none" stroke="#010202" stroke-miterlimit="10" d="M162.39,333.221
		l-12.274-7.086v-14.174l12.274-7.086l12.274,7.086v14.174L162.39,333.221z"/>
	<path id="path48974_1_" inkscape:connector-curvature="0" fill="none" stroke="#010202" stroke-miterlimit="10" d="
		M604.268,134.796l12.274,7.087v14.173l-12.274,7.087l-12.274-7.087v-14.173L604.268,134.796L604.268,134.796z"/>
	<path id="path48976_1_" inkscape:connector-curvature="0" fill="none" stroke="#010202" stroke-miterlimit="10" d="
		M591.993,113.536l12.274,7.087v14.173l-12.274,7.087l-12.274-7.087v-14.173L591.993,113.536z"/>
	<path id="path48978_1_" inkscape:connector-curvature="0" fill="none" stroke="#010202" stroke-miterlimit="10" d="M579.719,92.276
		l12.274,7.086v14.174l-12.274,7.087l-12.274-7.087V99.362L579.719,92.276z"/>
	<path id="path48980_1_" inkscape:connector-curvature="0" fill="none" stroke="#010202" stroke-miterlimit="10" d="M567.444,71.017
		l12.274,7.086v14.174l-12.274,7.086l-12.274-7.086V78.103L567.444,71.017z"/>
	<path id="path48982_1_" inkscape:connector-curvature="0" fill="none" stroke="#010202" stroke-miterlimit="10" d="M555.17,49.757
		l12.274,7.086v14.174l-12.274,7.086l-12.274-7.086V56.843L555.17,49.757z"/>
	<path id="path48984_1_" inkscape:connector-curvature="0" fill="none" stroke="#010202" stroke-miterlimit="10" d="M665.64,241.095
		l12.274,7.087v14.173l-12.274,7.087l-12.274-7.087v-14.173L665.64,241.095z"/>
	<path id="path48986_1_" inkscape:connector-curvature="0" fill="none" stroke="#010202" stroke-miterlimit="10" d="
		M653.365,219.835l12.274,7.087v14.173l-12.274,7.087l-12.274-7.087v-14.173L653.365,219.835z"/>
	<path id="path48988_1_" inkscape:connector-curvature="0" fill="none" stroke="#010202" stroke-miterlimit="10" d="
		M641.091,198.575l12.274,7.087v14.173l-12.274,7.087l-12.274-7.087v-14.173L641.091,198.575z"/>
	<path id="path48990_1_" inkscape:connector-curvature="0" fill="none" stroke="#010202" stroke-miterlimit="10" d="
		M628.816,177.315l12.274,7.087v14.173l-12.274,7.087l-12.274-7.087v-14.173L628.816,177.315z"/>
	<path id="path48992_1_" inkscape:connector-curvature="0" fill="none" stroke="#010202" stroke-miterlimit="10" d="
		M616.542,156.056l12.274,7.087v14.173l-12.274,7.087l-12.274-7.087v-14.173L616.542,156.056z"/>
	<path id="path48994_1_" inkscape:connector-curvature="0" fill="none" stroke="#010202" stroke-miterlimit="10" d="
		M690.188,283.614l12.274,7.087v14.174l-12.274,7.086l-12.274-7.086v-14.174L690.188,283.614z"/>
	<path id="path48996_1_" inkscape:connector-curvature="0" fill="none" stroke="#010202" stroke-miterlimit="10" d="
		M677.914,262.354l12.274,7.087v14.173l-12.274,7.087l-12.274-7.087v-14.173L677.914,262.354z"/>
	<path id="path48998_1_" inkscape:connector-curvature="0" fill="none" stroke="#010202" stroke-miterlimit="10" d="M604.268,460.78
		l12.274-7.087v-14.173l-12.274-7.087l-12.274,7.087v14.173L604.268,460.78z"/>
	<path id="path49000_1_" inkscape:connector-curvature="0" fill="none" stroke="#010202" stroke-miterlimit="10" d="M591.993,482.04
		l12.274-7.087V460.78l-12.274-7.087l-12.274,7.087v14.173L591.993,482.04z"/>
	<path id="path49002_1_" inkscape:connector-curvature="0" fill="none" stroke="#010202" stroke-miterlimit="10" d="M579.719,503.3
		l12.274-7.087V482.04l-12.274-7.087l-12.274,7.087v14.173L579.719,503.3z"/>
	<path id="path49004_1_" inkscape:connector-curvature="0" fill="none" stroke="#010202" stroke-miterlimit="10" d="M567.444,524.56
		l12.274-7.087V503.3l-12.274-7.087L555.17,503.3v14.173L567.444,524.56z"/>
	<path id="path49006_1_" inkscape:connector-curvature="0" fill="none" stroke="#010202" stroke-miterlimit="10" d="M555.17,545.819
		l12.274-7.087V524.56l-12.274-7.087l-12.274,7.087v14.173L555.17,545.819z"/>
	<path id="path49008_1_" inkscape:connector-curvature="0" fill="none" stroke="#010202" stroke-miterlimit="10" d="M665.64,354.48
		l12.274-7.086v-14.174l-12.274-7.086l-12.274,7.086v14.174L665.64,354.48z"/>
	<path id="path49010_1_" inkscape:connector-curvature="0" fill="none" stroke="#010202" stroke-miterlimit="10" d="M653.365,375.74
		l12.274-7.086V354.48l-12.274-7.086l-12.274,7.086v14.174L653.365,375.74z"/>
	<path id="path49012_1_" inkscape:connector-curvature="0" fill="none" stroke="#010202" stroke-miterlimit="10" d="
		M641.091,397.001l12.274-7.087V375.74l-12.274-7.086l-12.274,7.086v14.174L641.091,397.001z"/>
	<path id="path49014_1_" inkscape:connector-curvature="0" fill="none" stroke="#010202" stroke-miterlimit="10" d="
		M628.816,418.261l12.274-7.087V397l-12.274-7.086L616.542,397v14.174L628.816,418.261z"/>
	<path id="path49016_1_" inkscape:connector-curvature="0" fill="none" stroke="#010202" stroke-miterlimit="10" d="
		M616.542,439.521l12.274-7.087v-14.173l-12.274-7.087l-12.274,7.087v14.173L616.542,439.521z"/>
	<path id="path49018_1_" inkscape:connector-curvature="0" fill="none" stroke="#010202" stroke-miterlimit="10" d="
		M677.914,333.221l12.274-7.086v-14.174l-12.274-7.086l-12.274,7.086v14.174L677.914,333.221z"/>
	<path id="path49020_1_" inkscape:connector-curvature="0" fill="none" stroke="#010202" stroke-miterlimit="10" d="
		M309.683,545.819l-12.274-7.087V524.56l12.274-7.087l12.274,7.087v14.173L309.683,545.819z"/>
	<path id="path49022_1_" inkscape:connector-curvature="0" fill="none" stroke="#010202" stroke-miterlimit="10" d="
		M334.231,545.819l-12.274-7.087V524.56l12.274-7.087l12.274,7.087v14.173L334.231,545.819z"/>
	<path id="path49024_1_" inkscape:connector-curvature="0" fill="none" stroke="#010202" stroke-miterlimit="10" d="M358.78,545.819
		l-12.274-7.087V524.56l12.274-7.087l12.273,7.087v14.173L358.78,545.819z"/>
	<path id="path49026_1_" inkscape:connector-curvature="0" fill="none" stroke="#010202" stroke-miterlimit="10" d="
		M383.328,545.819l-12.274-7.087V524.56l12.274-7.087l12.274,7.087v14.173L383.328,545.819z"/>
	<path id="path49028_1_" inkscape:connector-curvature="0" fill="none" stroke="#010202" stroke-miterlimit="10" d="
		M407.877,545.819l-12.274-7.087V524.56l12.274-7.087l12.274,7.087v14.173L407.877,545.819z"/>
	<path id="path49030_1_" inkscape:connector-curvature="0" fill="none" stroke="#010202" stroke-miterlimit="10" d="
		M432.426,545.819l-12.274-7.087V524.56l12.274-7.087l12.274,7.087v14.173L432.426,545.819z"/>
	<path id="path49032_1_" inkscape:connector-curvature="0" fill="none" stroke="#010202" stroke-miterlimit="10" d="
		M456.975,545.819l-12.274-7.087V524.56l12.274-7.087l12.274,7.087v14.173L456.975,545.819z"/>
	<path id="path49034_1_" inkscape:connector-curvature="0" fill="none" stroke="#010202" stroke-miterlimit="10" d="
		M481.523,545.819l-12.274-7.087V524.56l12.274-7.087l12.274,7.087v14.173L481.523,545.819z"/>
	<path id="path49036_1_" inkscape:connector-curvature="0" fill="none" stroke="#010202" stroke-miterlimit="10" d="
		M506.072,545.819l-12.274-7.087V524.56l12.274-7.087l12.274,7.087v14.173L506.072,545.819z"/>
	<path id="path49038_1_" inkscape:connector-curvature="0" fill="none" stroke="#010202" stroke-miterlimit="10" d="
		M530.621,545.819l-12.274-7.087V524.56l12.274-7.087l12.274,7.087v14.173L530.621,545.819z"/>
	<path id="path49040_1_" inkscape:connector-curvature="0" fill="none" stroke="#010202" stroke-miterlimit="10" d="M309.683,78.103
		l-12.274-7.086V56.843l12.274-7.086l12.274,7.086v14.174L309.683,78.103z"/>
	<path id="path49042_1_" inkscape:connector-curvature="0" fill="none" stroke="#010202" stroke-miterlimit="10" d="M334.231,78.103
		l-12.274-7.086V56.843l12.274-7.086l12.274,7.086v14.174L334.231,78.103z"/>
	<path id="path49044_1_" inkscape:connector-curvature="0" fill="none" stroke="#010202" stroke-miterlimit="10" d="M358.78,78.103
		l-12.274-7.086V56.843l12.274-7.086l12.273,7.086v14.174L358.78,78.103z"/>
	<path id="path49046_1_" inkscape:connector-curvature="0" fill="none" stroke="#010202" stroke-miterlimit="10" d="M383.328,78.103
		l-12.274-7.086V56.843l12.274-7.086l12.274,7.086v14.174L383.328,78.103z"/>
	<path id="path49048_1_" inkscape:connector-curvature="0" fill="none" stroke="#010202" stroke-miterlimit="10" d="M407.877,78.103
		l-12.274-7.086V56.843l12.274-7.086l12.274,7.086v14.174L407.877,78.103z"/>
	<path id="path49050_1_" inkscape:connector-curvature="0" fill="none" stroke="#010202" stroke-miterlimit="10" d="M432.426,78.103
		l-12.274-7.086V56.843l12.274-7.086l12.274,7.086v14.174L432.426,78.103z"/>
	<path id="path49052_1_" inkscape:connector-curvature="0" fill="none" stroke="#010202" stroke-miterlimit="10" d="M456.975,78.103
		L444.7,71.017V56.843l12.274-7.086l12.274,7.086v14.174L456.975,78.103z"/>
	<path id="path49054_1_" inkscape:connector-curvature="0" fill="none" stroke="#010202" stroke-miterlimit="10" d="M481.523,78.103
		l-12.274-7.086V56.843l12.274-7.086l12.274,7.086v14.174L481.523,78.103z"/>
	<path id="path49056_1_" inkscape:connector-curvature="0" fill="none" stroke="#010202" stroke-miterlimit="10" d="M506.072,78.103
		l-12.274-7.086V56.843l12.274-7.086l12.274,7.086v14.174L506.072,78.103z"/>
	<path id="path49058_1_" inkscape:connector-curvature="0" fill="none" stroke="#010202" stroke-miterlimit="10" d="M530.621,78.103
		l-12.274-7.086V56.843l12.274-7.086l12.274,7.086v14.174L530.621,78.103z"/>
</g>
</svg>
